<svg width="24" height="24" viewBox="0 0 24 24" fill="none" xmlns="http://www.w3.org/2000/svg">
<g clip-path="url(#clip0_536_3893)">
<path d="M22.0002 7.3335H2.00016C1.82335 7.3335 1.65378 7.40373 1.52876 7.52876C1.40373 7.65378 1.3335 7.82335 1.3335 8.00016C1.3335 8.17697 1.40373 8.34654 1.52876 8.47157C1.65378 8.59659 1.82335 8.66683 2.00016 8.66683H22.0002C22.177 8.66683 22.3465 8.59659 22.4716 8.47157C22.5966 8.34654 22.6668 8.17697 22.6668 8.00016C22.6668 7.82335 22.5966 7.65378 22.4716 7.52876C22.3465 7.40373 22.177 7.3335 22.0002 7.3335Z" fill="black"/>
<path d="M18.6665 11.3335H5.33317C5.15636 11.3335 4.98679 11.4037 4.86177 11.5288C4.73674 11.6538 4.6665 11.8234 4.6665 12.0002C4.6665 12.177 4.73674 12.3465 4.86177 12.4716C4.98679 12.5966 5.15636 12.6668 5.33317 12.6668H18.6665C18.8433 12.6668 19.0129 12.5966 19.1379 12.4716C19.2629 12.3465 19.3332 12.177 19.3332 12.0002C19.3332 11.8234 19.2629 11.6538 19.1379 11.5288C19.0129 11.4037 18.8433 11.3335 18.6665 11.3335Z" fill="black"/>
<path d="M15.3333 15.3335H8.66667C8.48986 15.3335 8.32029 15.4037 8.19526 15.5288C8.07024 15.6538 8 15.8234 8 16.0002C8 16.177 8.07024 16.3465 8.19526 16.4716C8.32029 16.5966 8.48986 16.6668 8.66667 16.6668H15.3333C15.5101 16.6668 15.6797 16.5966 15.8047 16.4716C15.9298 16.3465 16 16.177 16 16.0002C16 15.8234 15.9298 15.6538 15.8047 15.5288C15.6797 15.4037 15.5101 15.3335 15.3333 15.3335Z" fill="black"/>
</g>
<defs>
<clipPath id="clip0_536_3893">
<rect width="24" height="24" fill="white"/>
</clipPath>
</defs>
</svg>
