<svg width="22" height="22" viewBox="0 0 22 22" fill="none" xmlns="http://www.w3.org/2000/svg">
<g clip-path="url(#clip0_536_3889)">
<path d="M9.9796 3.08627C11.3034 3.08507 12.5977 3.4765 13.699 4.21105C14.8002 4.94561 15.6588 5.99028 16.1663 7.21291C16.6737 8.43555 16.8071 9.78121 16.5495 11.0797C16.292 12.3781 15.6552 13.571 14.7196 14.5075C13.784 15.444 12.5917 16.0819 11.2934 16.3406C9.99522 16.5993 8.64944 16.4671 7.42634 15.9608C6.20324 15.4545 5.15778 14.5968 4.42222 13.4963C3.68666 12.3957 3.29405 11.1017 3.29405 9.77794C3.30207 8.00673 4.00883 6.31026 5.2607 5.05724C6.51258 3.80422 8.2084 3.09592 9.9796 3.08627ZM9.9796 1.8335C8.40834 1.8335 6.87236 2.29943 5.56591 3.17238C4.25945 4.04532 3.24119 5.28608 2.63989 6.73773C2.0386 8.18939 1.88127 9.78675 2.18781 11.3278C2.49435 12.8689 3.25098 14.2845 4.36203 15.3955C5.47308 16.5066 6.88865 17.2632 8.42972 17.5697C9.97079 17.8763 11.5682 17.7189 13.0198 17.1177C14.4715 16.5164 15.7122 15.4981 16.5852 14.1916C17.4581 12.8852 17.9241 11.3492 17.9241 9.77794C17.9241 7.67094 17.087 5.65024 15.5972 4.16037C14.1073 2.6705 12.0866 1.8335 9.9796 1.8335Z" fill="black"/>
<path d="M21.3888 20.344L16.8849 15.8096L16.0171 16.6712L20.521 21.2057C20.5776 21.2627 20.6448 21.3079 20.7189 21.3389C20.793 21.3699 20.8724 21.386 20.9527 21.3863C21.033 21.3866 21.1126 21.371 21.1869 21.3406C21.2612 21.3101 21.3287 21.2653 21.3857 21.2087C21.4427 21.1522 21.488 21.0849 21.5189 21.0108C21.5499 20.9368 21.566 20.8573 21.5663 20.777C21.5666 20.6967 21.5511 20.6171 21.5206 20.5429C21.4901 20.4686 21.4453 20.401 21.3888 20.344Z" fill="black"/>
</g>
<defs>
<clipPath id="clip0_536_3889">
<rect width="22" height="22" fill="white"/>
</clipPath>
</defs>
</svg>
