<svg width="17" height="12" viewBox="0 0 17 12" fill="none" xmlns="http://www.w3.org/2000/svg">
<path d="M1.10466 7.82344C1.82895 4.09537 4.85674 1.44645 8.26261 1.44645C11.6674 1.44645 14.6952 4.09537 15.4206 7.82344C15.4493 7.97137 15.5317 8.10102 15.6496 8.18385C15.7675 8.26668 15.9113 8.29591 16.0493 8.26512C16.1873 8.23432 16.3082 8.14602 16.3855 8.01964C16.4628 7.89326 16.4901 7.73915 16.4613 7.59122C15.6361 3.35089 12.1846 0.308105 8.26261 0.308105C4.34061 0.308105 0.889073 3.35089 0.0638915 7.59122C0.035162 7.73915 0.0624352 7.89326 0.139711 8.01964C0.216988 8.14602 0.337937 8.23432 0.475951 8.26512C0.613966 8.29591 0.757741 8.26668 0.875647 8.18385C0.993553 8.10102 1.07593 7.97137 1.10466 7.82344ZM8.25199 3.72313C9.23781 3.72313 10.1833 4.14289 10.8803 4.89008C11.5774 5.63726 11.969 6.65065 11.969 7.70733C11.969 8.764 11.5774 9.7774 10.8803 10.5246C10.1833 11.2718 9.23781 11.6915 8.25199 11.6915C7.26617 11.6915 6.32073 11.2718 5.62365 10.5246C4.92657 9.7774 4.53495 8.764 4.53495 7.70733C4.53495 6.65065 4.92657 5.63726 5.62365 4.89008C6.32073 4.14289 7.26617 3.72313 8.25199 3.72313Z" fill="#878787"/>
</svg>
