<svg width="21" height="20" viewBox="0 0 21 20" fill="none" xmlns="http://www.w3.org/2000/svg">
<path d="M18.9677 0H8.12903V3.30756H9.48387V1.32302H18.9677C19.3742 1.32302 19.6452 1.58763 19.6452 1.98454V9.26117C19.6452 9.65808 19.3742 9.92268 18.9677 9.92268H10.1613V14.5533H6.57097L4.06452 16.4717V14.5533H2.03226C1.62581 14.5533 1.35484 14.2887 1.35484 13.8918V6.61512C1.35484 6.21821 1.62581 5.95361 2.03226 5.95361H10.8387V4.63058H2.03226C0.880645 4.63058 0 5.49055 0 6.61512V13.8918C0 15.0163 0.880645 15.8763 2.03226 15.8763H2.70968V19.25L6.97742 15.8763H11.5161V11.2457H18.9677C20.1194 11.2457 21 10.3857 21 9.26117V1.98454C21 0.859966 20.1194 0 18.9677 0Z" fill="#222222"/>
</svg>
