<svg width="24" height="22" viewBox="0 0 24 22" fill="none" xmlns="http://www.w3.org/2000/svg">
<path d="M21.6774 0H9.29032V3.78007H10.8387V1.51203H21.6774C22.1419 1.51203 22.4516 1.81443 22.4516 2.26804V10.5842C22.4516 11.0378 22.1419 11.3402 21.6774 11.3402H11.6129V16.6323H7.50968L4.64516 18.8247V16.6323H2.32258C1.85806 16.6323 1.54839 16.3299 1.54839 15.8763V7.56014C1.54839 7.10653 1.85806 6.80412 2.32258 6.80412H12.3871V5.2921H2.32258C1.00645 5.2921 0 6.27491 0 7.56014V15.8763C0 17.1615 1.00645 18.1443 2.32258 18.1443H3.09677V22L7.97419 18.1443H13.1613V12.8522H21.6774C22.9935 12.8522 24 11.8694 24 10.5842V2.26804C24 0.982818 22.9935 0 21.6774 0Z" fill="#222222"/>
<path d="M3.25195 15.0449H5.11002L5.57453 13.8353H7.97453L8.43905 15.0449H10.2971L7.66486 8.31641H5.80679L3.25195 15.0449ZM6.73582 10.2064L7.51002 12.5501H5.96163L6.73582 10.2064Z" fill="#222222"/>
<path d="M13.9355 10.5847C14.7872 10.5847 15.9485 10.3579 17.0323 9.82869C18.1162 10.3579 19.3549 10.5847 20.1291 10.5847V9.07268C20.1291 9.07268 19.3549 9.07268 18.5033 8.77027C19.4323 7.86306 20.1291 6.50223 20.1291 4.5366V3.78058H17.8065V2.26855H16.2581V3.78058H13.9355V5.29261H18.5033C18.3484 6.65343 17.7291 7.48505 17.0323 8.01426C16.5678 7.63625 16.1033 7.10704 15.7936 6.42663H14.1678C14.4775 7.40945 14.942 8.16546 15.5614 8.77027C14.7872 9.07268 14.0904 9.07268 13.9355 9.07268V10.5847Z" fill="#222222"/>
</svg>
