<svg width="20" height="18" viewBox="0 0 20 18" fill="none" xmlns="http://www.w3.org/2000/svg">
<path d="M19.7396 4.91907L14.7396 0.228095C14.4054 -0.0898214 13.8781 -0.0724603 13.5622 0.261741C13.2453 0.595942 13.2605 1.1232 13.5958 1.43917L17.0715 4.7225H11.3979C9.98264 4.6274 8.67014 5.21073 7.67361 6.19685C6.66667 7.19685 6.11111 8.53365 6.11111 9.96768V12.992C6.11111 13.4521 6.48438 13.7941 6.94444 13.7941C7.40451 13.7941 7.77778 13.485 7.77778 13.0232V9.96768C7.77778 8.98261 8.15764 8.06351 8.84653 7.38087C9.52431 6.71073 10.3785 6.32185 11.3889 6.35657H17.0694L13.5938 9.6399C13.2585 9.95567 13.2434 10.483 13.5601 10.8173C13.724 10.9597 13.9441 11.0788 14.1657 11.0788C14.3707 11.0788 14.5768 11.004 14.7375 10.851L19.7375 6.16001C19.9063 5.97115 20 5.7524 20 5.52323C20 5.29407 19.9063 5.07532 19.7396 4.91907ZM12.5 13.301C12.0399 13.301 11.6667 13.6743 11.6667 14.1031V15.7385C11.6667 15.8915 11.5419 15.985 11.3889 15.985H1.94444C1.79146 15.985 1.66667 15.8602 1.66667 15.7385V6.35657C1.66667 6.20358 1.79146 6.11004 1.94444 6.11004H3.88889C4.34896 6.11004 4.72222 5.73678 4.72222 5.30796C4.72222 4.87914 4.34896 4.50587 3.88889 4.50587H1.94444C0.872222 4.50587 0 5.3781 0 6.41907V15.8323C0 16.8739 0.872569 17.7455 1.94444 17.7455H11.3889C12.4611 17.7455 13.3333 16.8732 13.3333 15.8323V14.1968C13.3333 13.676 12.9618 13.301 12.5 13.301V13.301Z" fill="#009CD9"/>
</svg>
