<svg width="15" height="16" viewBox="0 0 15 16" fill="none" xmlns="http://www.w3.org/2000/svg">
<path d="M5.33333 6.33333V12.3333C5.33333 12.4306 5.30208 12.5104 5.23958 12.5729C5.17708 12.6354 5.09722 12.6667 5 12.6667H4.33333C4.23611 12.6667 4.15625 12.6354 4.09375 12.5729C4.03125 12.5104 4 12.4306 4 12.3333V6.33333C4 6.23611 4.03125 6.15625 4.09375 6.09375C4.15625 6.03125 4.23611 6 4.33333 6H5C5.09722 6 5.17708 6.03125 5.23958 6.09375C5.30208 6.15625 5.33333 6.23611 5.33333 6.33333ZM8 6.33333V12.3333C8 12.4306 7.96875 12.5104 7.90625 12.5729C7.84375 12.6354 7.76389 12.6667 7.66667 12.6667H7C6.90278 12.6667 6.82292 12.6354 6.76042 12.5729C6.69792 12.5104 6.66667 12.4306 6.66667 12.3333V6.33333C6.66667 6.23611 6.69792 6.15625 6.76042 6.09375C6.82292 6.03125 6.90278 6 7 6H7.66667C7.76389 6 7.84375 6.03125 7.90625 6.09375C7.96875 6.15625 8 6.23611 8 6.33333ZM10.6667 6.33333V12.3333C10.6667 12.4306 10.6354 12.5104 10.5729 12.5729C10.5104 12.6354 10.4306 12.6667 10.3333 12.6667H9.66667C9.56944 12.6667 9.48958 12.6354 9.42708 12.5729C9.36458 12.5104 9.33333 12.4306 9.33333 12.3333V6.33333C9.33333 6.23611 9.36458 6.15625 9.42708 6.09375C9.48958 6.03125 9.56944 6 9.66667 6H10.3333C10.4306 6 10.5104 6.03125 10.5729 6.09375C10.6354 6.15625 10.6667 6.23611 10.6667 6.33333ZM12 13.875V4H2.66667V13.875C2.66667 14.0278 2.69097 14.1684 2.73958 14.2969C2.78819 14.4253 2.83854 14.5191 2.89062 14.5781C2.94271 14.6372 2.97917 14.6667 3 14.6667H11.6667C11.6875 14.6667 11.724 14.6372 11.776 14.5781C11.8281 14.5191 11.8785 14.4253 11.9271 14.2969C11.9757 14.1684 12 14.0278 12 13.875ZM5 2.66667H9.66667L9.16667 1.44792C9.11806 1.38542 9.05903 1.34722 8.98958 1.33333H5.6875C5.61806 1.34722 5.55903 1.38542 5.51042 1.44792L5 2.66667ZM14.6667 3V3.66667C14.6667 3.76389 14.6354 3.84375 14.5729 3.90625C14.5104 3.96875 14.4306 4 14.3333 4H13.3333V13.875C13.3333 14.4514 13.1701 14.9497 12.8437 15.3698C12.5174 15.7899 12.125 16 11.6667 16H3C2.54167 16 2.14931 15.7969 1.82292 15.3906C1.49653 14.9844 1.33333 14.4931 1.33333 13.9167V4H0.333333C0.236111 4 0.15625 3.96875 0.09375 3.90625C0.03125 3.84375 0 3.76389 0 3.66667V3C0 2.90278 0.03125 2.82292 0.09375 2.76042C0.15625 2.69792 0.236111 2.66667 0.333333 2.66667H3.55208L4.28125 0.927083C4.38542 0.670139 4.57292 0.451389 4.84375 0.270833C5.11458 0.0902778 5.38889 0 5.66667 0H9C9.27778 0 9.55208 0.0902778 9.82292 0.270833C10.0937 0.451389 10.2812 0.670139 10.3854 0.927083L11.1146 2.66667H14.3333C14.4306 2.66667 14.5104 2.69792 14.5729 2.76042C14.6354 2.82292 14.6667 2.90278 14.6667 3Z" fill="#FB0E0E"/>
</svg>
