<svg width="50" height="45" viewBox="0 0 50 45" fill="none" xmlns="http://www.w3.org/2000/svg">
<g clip-path="url(#clip0_1089_3863)">
<path d="M44.4444 6.25H5.55556C4.08213 6.25 2.66905 6.77678 1.62718 7.71447C0.585316 8.65215 0 9.92392 0 11.25L0 16.875H50V11.25C50 9.92392 49.4147 8.65215 48.3728 7.71447C47.3309 6.77678 45.9179 6.25 44.4444 6.25Z" fill="#007A3D"/>
<path d="M0 33.75C0 35.0761 0.585316 36.3478 1.62718 37.2855C2.66905 38.2232 4.08213 38.75 5.55556 38.75H44.4444C45.9179 38.75 47.3309 38.2232 48.3728 37.2855C49.4147 36.3478 50 35.0761 50 33.75V28.125H0V33.75Z" fill="#CE1126"/>
<path d="M0 16.875H50V28.125H0V16.875Z" fill="#EEEEEE"/>
<path d="M1.67361 7.6725C1.14332 8.13799 0.72201 8.69438 0.434564 9.30883C0.147117 9.92327 -0.00064423 10.5833 2.11129e-06 11.25V33.75C2.11129e-06 35.1525 0.641669 36.4188 1.67361 37.3275L12.5 28.125V16.875L1.67361 7.6725Z" fill="#141414"/>
</g>
<defs>
<clipPath id="clip0_1089_3863">
<rect width="50" height="45" fill="white"/>
</clipPath>
</defs>
</svg>
