<svg width="10" height="11" viewBox="0 0 10 11" fill="none" xmlns="http://www.w3.org/2000/svg">
<path d="M9.6155 3.98601H8.84653C8.84571 3.24626 8.5619 2.53705 8.05734 2.01397C7.55278 1.49089 6.86869 1.19665 6.15514 1.1958V0.398602C7.07257 0.399657 7.95214 0.777954 8.60086 1.4505C9.24958 2.12304 9.61448 3.0349 9.6155 3.98601ZM8.84653 10.3636H8.78117C1.22605 9.91322 0.153342 3.30441 0.00339287 1.28748C-0.0200429 0.971291 0.07863 0.658397 0.277708 0.417625C0.476786 0.176852 0.759963 0.0279199 1.06495 0.00358781C1.09546 0.0011962 1.12609 3.73725e-07 1.15685 3.73725e-07H3.18308C3.33708 -0.000154189 3.48759 0.0476371 3.6151 0.137184C3.7426 0.22673 3.84123 0.353906 3.89822 0.502238L4.48263 1.99301C4.5389 2.13792 4.55287 2.29677 4.52279 2.44984C4.49271 2.60291 4.41992 2.74344 4.31346 2.85399L3.49451 3.71098C3.62191 4.46486 3.96988 5.15989 4.49122 5.7018C5.01256 6.24371 5.68205 6.60628 6.4089 6.74035L7.24323 5.88336C7.35146 5.7742 7.48829 5.7005 7.63666 5.67144C7.78504 5.64237 7.93837 5.65924 8.07756 5.71993L9.52707 6.32182C9.66799 6.38276 9.78822 6.48581 9.87244 6.61785C9.95666 6.74988 10.0011 6.90492 9.99998 7.06322V9.16783C9.99998 9.48498 9.87846 9.78914 9.66214 10.0134C9.44583 10.2376 9.15244 10.3636 8.84653 10.3636ZM1.15685 0.797203C1.10635 0.797046 1.05633 0.8072 1.00962 0.827087C0.962916 0.846973 0.920445 0.876202 0.884636 0.913105C0.848826 0.950007 0.820378 0.993861 0.800916 1.04216C0.781454 1.09046 0.771359 1.14226 0.771208 1.19461C0.771208 1.20577 0.771592 1.2168 0.772361 1.22769C0.949224 3.58741 2.08345 9.16783 8.82346 9.56643C8.92522 9.57275 9.02524 9.53692 9.10152 9.46681C9.1778 9.39669 9.2241 9.29804 9.23024 9.19254L9.23101 9.16783V7.06322L7.78151 6.46133L6.67804 7.59734L6.49348 7.57343C3.14847 7.13895 2.69478 3.67112 2.69478 3.63524L2.67171 3.44392L3.76365 2.29993L3.18692 0.797203H1.15685Z" fill="#242424"/>
</svg>
