<svg width="19" height="23" viewBox="0 0 19 23" fill="none" xmlns="http://www.w3.org/2000/svg">
<path d="M9.34876 12.1895C8.98995 12.191 8.64152 12.3188 8.35705 12.5532C8.07258 12.7876 7.86781 13.1156 7.77422 13.4869C7.68063 13.8582 7.7034 14.2522 7.83903 14.6083C7.97466 14.9644 8.21565 15.2628 8.52494 15.4578V17.9615H10.1927V15.4578C10.4374 15.3027 10.6405 15.0823 10.7822 14.8181C10.9239 14.5539 10.9994 14.2549 11.0014 13.9502V13.9502C11.0014 13.7181 10.9586 13.4882 10.8754 13.2739C10.7923 13.0596 10.6704 12.865 10.5168 12.7014C10.3632 12.5377 10.1809 12.4083 9.98045 12.3204C9.78 12.2326 9.56532 12.1881 9.34876 12.1895V12.1895Z" stroke="black" stroke-linecap="round" stroke-linejoin="round"/>
<path d="M15.5224 8.14648H3.17008C1.97158 8.14648 1 9.18789 1 10.4725V19.6744C1 20.9591 1.97158 22.0005 3.17008 22.0005H15.5224C16.7209 22.0005 17.6925 20.9591 17.6925 19.6744V10.4725C17.6925 9.18789 16.7209 8.14648 15.5224 8.14648Z" stroke="black" stroke-linecap="round" stroke-linejoin="round"/>
<path d="M3.99896 8.14507V6.73975C3.99896 5.21747 4.56313 3.75754 5.56737 2.68113C6.5716 1.60472 7.93363 1 9.35383 1C10.774 1 12.1361 1.60472 13.1403 2.68113C14.1445 3.75754 14.7087 5.21747 14.7087 6.73975V8.14507" stroke="black" stroke-linecap="round" stroke-linejoin="round"/>
</svg>
