<svg width="20" height="20" viewBox="0 0 20 20" fill="none" xmlns="http://www.w3.org/2000/svg">
<path d="M3.57122 4.15441C3.96571 4.15441 4.2855 3.84439 4.2855 3.46197C4.2855 3.07955 3.96571 2.76953 3.57122 2.76953C3.17673 2.76953 2.85693 3.07955 2.85693 3.46197C2.85693 3.84439 3.17673 4.15441 3.57122 4.15441Z" fill="#222222"/>
<path d="M3.57122 9.69396C3.96571 9.69396 4.2855 9.38394 4.2855 9.00152C4.2855 8.6191 3.96571 8.30908 3.57122 8.30908C3.17673 8.30908 2.85693 8.6191 2.85693 9.00152C2.85693 9.38394 3.17673 9.69396 3.57122 9.69396Z" fill="#222222"/>
<path d="M3.57122 15.234C3.96571 15.234 4.2855 14.924 4.2855 14.5416C4.2855 14.1591 3.96571 13.8491 3.57122 13.8491C3.17673 13.8491 2.85693 14.1591 2.85693 14.5416C2.85693 14.924 3.17673 15.234 3.57122 15.234Z" fill="#222222"/>
<path d="M7.14284 16.6185H1.42857V12.4639H7.14284V11.079H1.42857V6.92439H14.2857V1.38488C14.2857 1.01759 14.1352 0.665336 13.8673 0.405621C13.5994 0.145906 13.236 0 12.8571 0H1.42857C1.04969 0 0.686326 0.145906 0.418418 0.405621C0.150509 0.665336 0 1.01759 0 1.38488V16.6185C0 16.9858 0.150509 17.3381 0.418418 17.5978C0.686326 17.8575 1.04969 18.0034 1.42857 18.0034H7.14284V16.6185ZM1.42857 1.38488H12.8571V5.53951H1.42857V1.38488Z" fill="#222222"/>
<path d="M18.5714 10.3866V12.0575C18.1227 11.3303 17.4852 10.7299 16.7224 10.3163C15.9596 9.90259 15.0982 9.69012 14.2243 9.70004C13.3503 9.70996 12.4943 9.94193 11.7417 10.3728C10.9891 10.8037 10.3662 11.4183 9.93528 12.1555C9.50434 12.8927 9.28037 13.7265 9.28574 14.5738C9.29111 15.4211 9.52563 16.2522 9.96589 16.9841C10.4062 17.7161 11.0368 18.3233 11.7948 18.7452C12.5528 19.1671 13.4116 19.3888 14.2857 19.3883V18.0034C13.6416 18.0043 13.0093 17.8362 12.4556 17.5171C11.902 17.198 11.4477 16.7396 11.1409 16.1907C10.8341 15.6417 10.6861 15.0225 10.7126 14.3986C10.7391 13.7747 10.9392 13.1695 11.2916 12.6468C11.6441 12.1242 12.1357 11.7037 12.7146 11.4298C13.2934 11.156 13.9378 11.039 14.5797 11.0912C15.2215 11.1434 15.8368 11.3629 16.3605 11.7265C16.8841 12.09 17.2966 12.5841 17.5542 13.1564H15.7142V14.5412H19.9999V10.3866H18.5714Z" fill="#222222"/>
</svg>
