<svg width="20" height="22" viewBox="0 0 20 22" fill="none" xmlns="http://www.w3.org/2000/svg">
<path d="M17.3333 10.3438C17.75 10.6285 18.1215 10.9514 18.4479 11.3125C18.7743 11.6736 19.0556 12.0694 19.2917 12.5C19.5278 12.9306 19.7014 13.3854 19.8125 13.8646C19.9236 14.3438 19.9861 14.8333 20 15.3333C20 16.1597 19.8438 16.9375 19.5312 17.6667C19.2188 18.3958 18.7882 19.0313 18.2396 19.5729C17.691 20.1146 17.0556 20.5417 16.3333 20.8542C15.6111 21.1667 14.8333 21.3264 14 21.3333C13.3681 21.3333 12.7569 21.2396 12.1667 21.0521C11.5764 20.8646 11.0347 20.5938 10.5417 20.2396C10.0486 19.8854 9.61111 19.4618 9.22917 18.9688C8.84722 18.4757 8.55208 17.9306 8.34375 17.3333H0V1.33333H2.66667V0H4V1.33333H13.3333V0H14.6667V1.33333H17.3333V10.3438ZM1.33333 2.66667V5.33333H16V2.66667H14.6667V4H13.3333V2.66667H4V4H2.66667V2.66667H1.33333ZM8.03125 16C8.01042 15.7847 8 15.5625 8 15.3333C8 14.7361 8.08333 14.1562 8.25 13.5938C8.41667 13.0312 8.67014 12.5 9.01042 12H8V10.6667H9.33333V11.5625C9.61806 11.2083 9.93403 10.8958 10.2812 10.625C10.6285 10.3542 11.0035 10.1215 11.4062 9.92708C11.809 9.73264 12.2292 9.58681 12.6667 9.48958C13.1042 9.39236 13.5486 9.34028 14 9.33333C14.6944 9.33333 15.3611 9.44792 16 9.67708V6.66667H1.33333V16H8.03125ZM14 20C14.6458 20 15.25 19.8785 15.8125 19.6354C16.375 19.3924 16.8681 19.059 17.2917 18.6354C17.7153 18.2118 18.0486 17.7188 18.2917 17.1562C18.5347 16.5938 18.6597 15.9861 18.6667 15.3333C18.6667 14.6875 18.5451 14.0833 18.3021 13.5208C18.059 12.9583 17.7257 12.4653 17.3021 12.0417C16.8785 11.6181 16.3854 11.2847 15.8229 11.0417C15.2604 10.7986 14.6528 10.6736 14 10.6667C13.3542 10.6667 12.75 10.7882 12.1875 11.0312C11.625 11.2743 11.1319 11.6076 10.7083 12.0312C10.2847 12.4549 9.95139 12.9479 9.70833 13.5104C9.46528 14.0729 9.34028 14.6806 9.33333 15.3333C9.33333 15.9792 9.45486 16.5833 9.69792 17.1458C9.94097 17.7083 10.2743 18.2014 10.6979 18.625C11.1215 19.0486 11.6146 19.3819 12.1771 19.625C12.7396 19.8681 13.3472 19.9931 14 20ZM14.6667 14.6667H16.6667V16H13.3333V12H14.6667V14.6667ZM2.66667 10.6667H4V12H2.66667V10.6667ZM5.33333 10.6667H6.66667V12H5.33333V10.6667ZM5.33333 8H6.66667V9.33333H5.33333V8ZM2.66667 13.3333H4V14.6667H2.66667V13.3333ZM5.33333 13.3333H6.66667V14.6667H5.33333V13.3333ZM9.33333 9.33333H8V8H9.33333V9.33333ZM12 9.33333H10.6667V8H12V9.33333ZM14.6667 9.33333H13.3333V8H14.6667V9.33333Z" fill="#222222"/>
</svg>
