<svg width="23" height="23" viewBox="0 0 23 23" fill="none" xmlns="http://www.w3.org/2000/svg">
<path d="M1 21.3V1.7C1 1.51435 1.07375 1.3363 1.20503 1.20503C1.3363 1.07375 1.51435 1 1.7 1H21.3C21.4857 1 21.6637 1.07375 21.795 1.20503C21.9263 1.3363 22 1.51435 22 1.7V21.3C22 21.4857 21.9263 21.6637 21.795 21.795C21.6637 21.9263 21.4857 22 21.3 22H1.7C1.51435 22 1.3363 21.9263 1.20503 21.795C1.07375 21.6637 1 21.4857 1 21.3V21.3Z" stroke="black" stroke-width="1.5"/>
<path d="M15 7.41699C14.2008 6.61783 12.7938 6.06249 11.5 6.02749M8 15.0003C8.75133 16.0037 10.1502 16.5753 11.5 16.6232M11.5 6.02749C9.96 5.98549 8.58333 6.68199 8.58333 8.58366C8.58333 12.0837 15 10.3337 15 13.8337C15 15.8298 13.292 16.6873 11.5 16.6232M11.5 6.02749V3.91699M11.5 16.6232V19.0837" stroke="black" stroke-width="1.5" stroke-linecap="round" stroke-linejoin="round"/>
</svg>
