<svg width="26" height="24" viewBox="0 0 26 24" fill="none" xmlns="http://www.w3.org/2000/svg">
<path fill-rule="evenodd" clip-rule="evenodd" d="M0.200012 8.7998C0.200012 8.37546 0.368583 7.96849 0.668641 7.66843C0.9687 7.36838 1.37567 7.1998 1.80001 7.1998H18.2928C18.7172 7.1998 19.1241 7.36838 19.4242 7.66843C19.7242 7.96849 19.8928 8.37546 19.8928 8.7998C19.8928 9.22415 19.7242 9.63112 19.4242 9.93118C19.1241 10.2312 18.7172 10.3998 18.2928 10.3998H1.80001C1.37567 10.3998 0.9687 10.2312 0.668641 9.93118C0.368583 9.63112 0.200012 9.22415 0.200012 8.7998ZM0.200012 2.3998C0.200012 1.97546 0.368583 1.56849 0.668641 1.26843C0.9687 0.968376 1.37567 0.799805 1.80001 0.799805H24.2C24.6244 0.799805 25.0313 0.968376 25.3314 1.26843C25.6314 1.56849 25.8 1.97546 25.8 2.3998C25.8 2.82415 25.6314 3.23112 25.3314 3.53118C25.0313 3.83123 24.6244 3.9998 24.2 3.9998H1.80001C1.37567 3.9998 0.9687 3.83123 0.668641 3.53118C0.368583 3.23112 0.200012 2.82415 0.200012 2.3998ZM0.200012 15.1998C0.200012 14.7755 0.368583 14.3685 0.668641 14.0684C0.9687 13.7684 1.37567 13.5998 1.80001 13.5998H24.2C24.6244 13.5998 25.0313 13.7684 25.3314 14.0684C25.6314 14.3685 25.8 14.7755 25.8 15.1998C25.8 15.6242 25.6314 16.0311 25.3314 16.3312C25.0313 16.6312 24.6244 16.7998 24.2 16.7998H1.80001C1.37567 16.7998 0.9687 16.6312 0.668641 16.3312C0.368583 16.0311 0.200012 15.6242 0.200012 15.1998ZM0.200012 21.5998C0.200012 21.1755 0.368583 20.7685 0.668641 20.4684C0.9687 20.1684 1.37567 19.9998 1.80001 19.9998H18.2928C18.7172 19.9998 19.1241 20.1684 19.4242 20.4684C19.7242 20.7685 19.8928 21.1755 19.8928 21.5998C19.8928 22.0242 19.7242 22.4311 19.4242 22.7312C19.1241 23.0312 18.7172 23.1998 18.2928 23.1998H1.80001C1.37567 23.1998 0.9687 23.0312 0.668641 22.7312C0.368583 22.4311 0.200012 22.0242 0.200012 21.5998Z" fill="#009CD9"/>
</svg>
