<svg width="24" height="16" viewBox="0 0 24 16" fill="none" xmlns="http://www.w3.org/2000/svg">
<path d="M24 13.5385C24 14.1913 23.719 14.8174 23.219 15.279C22.7189 15.7407 22.0406 16 21.3333 16H2.66667C1.95942 16 1.28115 15.7407 0.781049 15.279C0.280952 14.8174 0 14.1913 0 13.5385V2.46154C0 1.8087 0.280952 1.1826 0.781049 0.720968C1.28115 0.25934 1.95942 0 2.66667 0H21.3333C22.0406 0 22.7189 0.25934 23.219 0.720968C23.719 1.1826 24 1.8087 24 2.46154V13.5385Z" fill="#141414"/>
<path d="M0 4.92308H24V11.0769H0V4.92308Z" fill="#EEEEEE"/>
<path d="M21.3333 0H2.66667C1.95942 0 1.28115 0.25934 0.781049 0.720968C0.280952 1.1826 0 1.8087 0 2.46154L0 4.92308H24V2.46154C24 1.8087 23.719 1.1826 23.219 0.720968C22.7189 0.25934 22.0406 0 21.3333 0Z" fill="#CE1225"/>
<path d="M13.906 6.45183C13.906 6.45183 13.8854 6.00013 13.4374 6.05736C12.9894 6.11521 12.958 6.31706 12.4787 6.36506L12.38 6.37367C12.3001 6.1736 12.2559 5.96284 12.2494 5.74967C12.2494 5.46106 12.3434 5.33613 12.02 5.19213C11.6974 5.04813 11.6347 5.18229 11.6347 5.18229C11.6347 5.18229 11.3847 5.06659 11.27 5.15336C11.1554 5.24013 11.218 5.46106 11.27 5.39398C11.322 5.3269 11.5307 5.5189 11.5307 5.5189C11.6014 5.83829 11.4007 6.18413 11.2634 6.37675C11.216 6.37244 11.178 6.37059 11.1247 6.36506C10.6454 6.31706 10.614 6.11521 10.166 6.05736C9.71802 5.99952 9.69735 6.45183 9.69735 6.45183L9.52002 9.94229L9.88469 9.68259L9.88669 9.64136L10.6454 9.01921L10.772 8.90229L10.458 9.74967C10.458 9.74967 9.97869 9.72075 10.114 10.0764C10.114 10.0764 10.1867 9.87459 10.312 9.91275C10.4374 9.9509 10.8014 10.0377 10.8014 10.0377L10.9267 10.2204L11.0827 10.0857L11.572 10.0666C11.572 10.0666 11.728 10.1047 11.718 10.2303C11.7467 10.1763 11.7554 10.1151 11.7427 10.0561L11.89 10.0469C11.8742 10.1088 11.8822 10.1739 11.9127 10.2309C11.902 10.106 12.0587 10.0672 12.0587 10.0672L12.548 10.0863L12.7047 10.2211L12.83 10.0383C12.83 10.0383 13.194 9.95152 13.3187 9.91336C13.4434 9.87521 13.5167 10.0771 13.5167 10.0771C13.652 9.72136 13.1727 9.75029 13.1727 9.75029L12.8734 8.94229L12.9574 9.01982L13.716 9.64198L13.718 9.68321L14.0827 9.9429L13.906 6.45183ZM11.8347 8.56752C11.0834 8.13921 11.0214 7.05798 11.0214 7.05798C11.0214 7.05798 11.486 7.03582 11.8234 6.81736C12.1274 7.06659 12.646 7.03829 12.646 7.03829C12.646 7.03829 12.6107 8.12383 11.8347 8.56752ZM13.552 6.31767L12.9167 6.87521L12.81 6.91459C12.7007 6.91829 12.1687 6.91952 11.8334 6.64444C11.4167 6.91398 10.844 6.93306 10.844 6.93306L10.7554 6.90044L10.052 6.31767L9.86735 6.38783C9.87535 6.31829 9.91669 6.16198 10.146 6.19275C10.522 6.24259 10.6774 6.43336 11.0734 6.47152L11.1854 6.48198L11.146 6.52875C11.2074 6.52875 11.298 6.51213 11.3647 6.49859L11.44 6.50536L11.406 6.6149C11.4594 6.60013 11.5367 6.55767 11.6 6.52013L11.7734 6.53552L11.8127 6.58598L11.9447 6.52506L12.0334 6.51706C12.11 6.55829 12.2194 6.59521 12.2194 6.59521L12.24 6.49921C12.334 6.55706 12.49 6.55706 12.49 6.55706C12.472 6.54352 12.454 6.50906 12.4354 6.47952L12.5314 6.47029C12.9274 6.43213 13.082 6.24136 13.4587 6.19152C13.688 6.16136 13.7294 6.31706 13.7374 6.38659L13.552 6.31767Z" fill="#BF9300"/>
<path d="M11.5834 8.54845L11.208 9.86538L10.5834 9.7503L11.2294 8.05799L11.5834 8.54845ZM12.0494 8.54845L12.424 9.86538L13.0494 9.7503L12.4034 8.05799L12.0494 8.54845Z" fill="#EEEEEE"/>
<path d="M11.1774 7.16369C11.1774 7.16369 11.2294 7.72123 11.5 8.15384V7.03876C11.5 7.03876 11.3227 7.13477 11.1774 7.16369ZM12.4794 7.18277C12.4794 7.18277 12.4274 7.7403 12.1567 8.17292V7.05784C12.156 7.05784 12.3334 7.15384 12.4794 7.18277Z" fill="#BF9300"/>
<path d="M10.3647 10.2497C10.2453 10.3156 10.292 10.3556 10.3647 10.3845C10.4373 10.4134 10.8747 10.462 11.7607 10.4805C12.6667 10.4996 13.2293 10.4036 13.302 10.3648C13.3747 10.3267 13.3853 10.259 13.2607 10.2399C13.1353 10.2208 12.5107 10.3168 11.75 10.3168C10.8127 10.3174 10.4167 10.2208 10.3647 10.2497Z" fill="#BF9300"/>
</svg>
