<svg width="16" height="16" viewBox="0 0 16 16" fill="none" xmlns="http://www.w3.org/2000/svg">
<path d="M5.85901 12.6929L5.04901 13.498C4.70968 13.832 4.25264 14.0192 3.77651 14.0192C3.30038 14.0192 2.84334 13.832 2.50401 13.498C2.33857 13.3341 2.20723 13.1391 2.1176 12.9242C2.02798 12.7093 1.98183 12.4788 1.98183 12.2459C1.98183 12.0131 2.02798 11.7826 2.1176 11.5677C2.20723 11.3528 2.33857 11.1578 2.50401 10.9939L5.48401 8.03887C6.10101 7.42586 7.26301 6.52384 8.11001 7.36386C8.20116 7.46105 8.31096 7.53888 8.43285 7.59271C8.55474 7.64654 8.68622 7.67527 8.81946 7.67717C8.95269 7.67906 9.08494 7.6541 9.20831 7.60377C9.33169 7.55344 9.44366 7.47876 9.53754 7.38421C9.63143 7.28965 9.7053 7.17715 9.75475 7.05341C9.8042 6.92968 9.82822 6.79725 9.82537 6.66404C9.82252 6.53082 9.79286 6.39954 9.73816 6.27803C9.68347 6.15653 9.60485 6.04729 9.50701 5.95683C8.06901 4.52881 5.94101 4.79281 4.08801 6.63184L1.10801 9.58789C0.755904 9.93504 0.476555 10.3489 0.286306 10.8053C0.0960573 11.2617 -0.00127177 11.7515 1.25466e-05 12.2459C-0.00121594 12.7404 0.0961385 13.2301 0.286384 13.6865C0.47663 14.1429 0.755949 14.5568 1.10801 14.904C1.81771 15.6079 2.77741 16.002 3.77701 16C4.74401 16 5.71101 15.635 6.44601 14.904L7.25701 14.099C7.3495 14.0075 7.42301 13.8987 7.47334 13.7787C7.52367 13.6588 7.54981 13.5301 7.55027 13.4C7.55074 13.2699 7.52551 13.141 7.47605 13.0207C7.42658 12.9004 7.35384 12.7911 7.26201 12.6989C7.07638 12.5128 6.82463 12.4077 6.56175 12.4066C6.29887 12.4054 6.04623 12.5084 5.85901 12.6929ZM14.891 1.20876C13.344 -0.325268 11.182 -0.408269 9.75201 1.01175L8.74301 2.01377C8.55657 2.19889 8.45129 2.4505 8.45036 2.71325C8.44942 2.97599 8.55289 3.22834 8.73801 3.41479C8.92313 3.60124 9.17474 3.70652 9.43748 3.70745C9.70022 3.70839 9.95257 3.60492 10.139 3.41979L11.149 2.41878C11.889 1.68276 12.86 1.98777 13.495 2.61578C13.831 2.95078 14.017 3.39479 14.017 3.8678C14.017 4.34081 13.831 4.78481 13.495 5.11882L10.315 8.27287C8.86101 9.71389 8.17901 9.03888 7.88801 8.74988C7.79569 8.65821 7.68622 8.58563 7.56585 8.53627C7.44548 8.48692 7.31657 8.46175 7.18648 8.46222C7.05638 8.46268 6.92765 8.48876 6.80764 8.53898C6.68762 8.58919 6.57867 8.66256 6.48701 8.75488C6.39535 8.8472 6.32277 8.95667 6.27341 9.07704C6.22406 9.19741 6.19889 9.32633 6.19936 9.45642C6.19982 9.58652 6.2259 9.71525 6.27612 9.83527C6.32633 9.95528 6.39969 10.0642 6.49201 10.1559C7.16001 10.8179 7.92201 11.1459 8.72001 11.1459C9.69701 11.1459 10.73 10.6539 11.713 9.67889L14.893 6.52584C15.2444 6.17817 15.5231 5.76417 15.7132 5.30788C15.9032 4.85158 16.0007 4.36209 16 3.8678C16.0009 3.37316 15.9033 2.88328 15.7129 2.42675C15.5225 1.97022 15.2431 1.55618 14.891 1.20876Z" fill="white"/>
</svg>
