<svg width="24" height="16" viewBox="0 0 24 16" fill="none" xmlns="http://www.w3.org/2000/svg">
<path d="M21.3333 0H6V5.53846H24V2.46154C24 1.8087 23.719 1.1826 23.219 0.720968C22.7189 0.25934 22.0406 0 21.3333 0Z" fill="#068241"/>
<path d="M6 5.53846H24V10.4615H6V5.53846Z" fill="#EEEEEE"/>
<path d="M6 16H21.3333C22.0406 16 22.7189 15.7407 23.219 15.279C23.719 14.8174 24 14.1913 24 13.5385V10.4615H6V16Z" fill="#141414"/>
<path d="M2.66667 0C1.95942 0 1.28115 0.25934 0.781049 0.720968C0.280952 1.1826 0 1.8087 0 2.46154L0 13.5385C0 14.1913 0.280952 14.8174 0.781049 15.279C1.28115 15.7407 1.95942 16 2.66667 16H6V0H2.66667Z" fill="#EC2028"/>
</svg>
