<svg width="52" height="38" viewBox="0 0 52 38" fill="none" xmlns="http://www.w3.org/2000/svg">
<path d="M50.361 0.996713C34.1237 -2.76623 17.8865 5.61164 1.639 1.83856C0.732968 1.6357 0 2.15298 0 3.05568V34.9443C0 35.847 0.732968 36.7903 1.639 37.0033C17.8763 40.7662 34.1135 32.3884 50.361 36.1614C51.267 36.3744 52 35.8572 52 34.9545V3.06582C52 2.15298 51.267 1.20971 50.361 0.996713Z" fill="#0B67B2"/>
<path d="M52 3.05629C52 2.15359 51.267 1.21032 50.361 0.997327C50.2592 0.977042 50.1472 0.946614 50.0454 0.926328L31.9554 11.9007V0.622047C27.9851 1.09875 24.0149 1.74789 20.0446 2.22459V11.779L4.58105 2.39702C3.60376 2.25502 2.62647 2.07245 1.639 1.83917C0.732968 1.63632 0 2.15359 0 3.05629V5.16598L13.0305 13.0671H0V24.9341H13.6312L0 33.2004V34.9449C0 35.8476 0.732968 36.7909 1.639 37.0039C1.9444 37.0749 2.2498 37.1358 2.54503 37.1966L20.0345 26.5772V37.369C24.0047 36.8923 27.9749 36.2432 31.9452 35.7665V26.4454L46.8998 35.5332C48.0501 35.6854 49.2005 35.8882 50.3508 36.1621C51.2569 36.3751 51.9898 35.8578 51.9898 34.9551V33.0888L38.5623 24.9442H51.9898V13.0773H39.1629L51.9898 5.29783C52 4.53713 52 3.79671 52 3.05629Z" fill="#FF473E"/>
<path d="M42.0337 25.8467L52 31.8918V34.2651L38.1245 25.8467H32.9021L49.628 35.9996C47.9381 35.6446 46.2381 35.4214 44.5482 35.2896L32.8716 28.21V35.675C32.2608 35.746 31.65 35.817 31.0392 35.8981V24.0312H52V25.8569H42.0337V25.8467ZM19.1284 37.4905C19.7392 37.4195 20.35 37.3485 20.9608 37.2674V24.021H0V25.8467H10.1699L0 32.0135V34.3869L14.0791 25.8467H19.1284V25.9481L1.19107 36.8312C1.33359 36.9022 1.4863 36.9631 1.639 37.0037C2.44323 37.1862 3.24745 37.3485 4.05168 37.4804L19.1284 28.3317V37.4905ZM0 12.1541V13.9798H20.9608V2.1128C20.35 2.19394 19.7392 2.26494 19.1284 2.33594V10.0444L6.99374 2.68079C5.24276 2.52865 3.49178 2.27508 1.7408 1.86938L18.6907 12.1541H13.4683L0 3.97906V6.35245L9.5693 12.1541H0ZM32.8716 0.510254C32.2608 0.581253 31.65 0.652252 31.0392 0.733394V13.9798H52V12.1541H42.6343L52 6.47416V4.10077L38.7251 12.1541H33.5027L51.1856 1.4231C50.9413 1.22024 50.6664 1.0681 50.361 0.997104C49.7604 0.855106 49.1699 0.743536 48.5693 0.631967L32.8716 10.156V0.510254Z" fill="#E8E8E8"/>
</svg>
