<svg width="21" height="23" viewBox="0 0 21 23" fill="none" xmlns="http://www.w3.org/2000/svg">
<path fill-rule="evenodd" clip-rule="evenodd" d="M13.5076 11.7581C13.3339 11.2668 13.0121 10.8414 12.5866 10.5406C12.1611 10.2397 11.6528 10.0782 11.1316 10.0781V9.44824H9.87184V10.0781C9.2036 10.0781 8.56273 10.3436 8.09021 10.8161C7.61769 11.2886 7.35223 11.9295 7.35223 12.5978C7.35223 13.266 7.61769 13.9069 8.09021 14.3794C8.56273 14.8519 9.2036 15.1174 9.87184 15.1174V17.637C9.32383 17.637 8.85707 17.2874 8.68322 16.7973C8.65742 16.7171 8.61581 16.6429 8.56085 16.5791C8.50588 16.5153 8.43867 16.4632 8.3632 16.4258C8.28773 16.3884 8.20553 16.3665 8.12146 16.3615C8.03739 16.3564 7.95315 16.3682 7.87374 16.3963C7.79433 16.4244 7.72135 16.4681 7.65912 16.5248C7.59689 16.5816 7.54667 16.6502 7.51144 16.7267C7.47621 16.8032 7.45667 16.886 7.454 16.9702C7.45132 17.0544 7.46555 17.1382 7.49585 17.2168C7.6696 17.7081 7.99139 18.1335 8.4169 18.4344C8.84241 18.7352 9.35072 18.8968 9.87184 18.8968V19.5267H11.1316V18.8968C11.7999 18.8968 12.4408 18.6313 12.9133 18.1588C13.3858 17.6863 13.6513 17.0454 13.6513 16.3772C13.6513 15.7089 13.3858 15.0681 12.9133 14.5955C12.4408 14.123 11.7999 13.8576 11.1316 13.8576V11.3379C11.3922 11.3379 11.6463 11.4186 11.8591 11.569C12.0718 11.7193 12.2328 11.932 12.3196 12.1776C12.3753 12.3351 12.4912 12.4641 12.6419 12.5362C12.7166 12.5719 12.7975 12.5925 12.8801 12.5969C12.9627 12.6013 13.0454 12.5894 13.1234 12.5618C13.2014 12.5343 13.2732 12.4917 13.3347 12.4364C13.3963 12.3811 13.4463 12.3142 13.482 12.2396C13.5177 12.1649 13.5383 12.084 13.5427 12.0014C13.5471 11.9188 13.5352 11.8361 13.5076 11.7581ZM9.87184 11.3379C9.53772 11.3379 9.21729 11.4707 8.98103 11.7069C8.74477 11.9432 8.61204 12.2636 8.61204 12.5978C8.61204 12.9319 8.74477 13.2523 8.98103 13.4886C9.21729 13.7248 9.53772 13.8576 9.87184 13.8576V11.3379ZM11.1316 17.637C11.4658 17.637 11.7862 17.5042 12.0225 17.268C12.2587 17.0317 12.3915 16.7113 12.3915 16.3772C12.3915 16.043 12.2587 15.7226 12.0225 15.4864C11.7862 15.2501 11.4658 15.1174 11.1316 15.1174V17.637Z" fill="black"/>
<path fill-rule="evenodd" clip-rule="evenodd" d="M3.66909 1.65097C5.21487 0.894461 7.75085 0 10.5262 0C13.2436 0 15.7128 0.857297 17.2504 1.60373L17.3373 1.64593C17.8009 1.87522 18.1751 2.09191 18.4384 2.26765L16.1115 5.66912C21.4758 11.153 25.6193 22.6746 10.5262 22.6746C-4.56688 22.6746 -0.534878 11.3622 4.87598 5.66912L2.56424 2.26765C2.7425 2.15112 2.96864 2.01569 3.23824 1.87207C3.37177 1.80026 3.51539 1.72656 3.66909 1.6516V1.65097ZM14.6162 5.62377L16.4788 2.9007C14.7465 3.02542 12.6855 3.43234 10.7013 4.00681C9.28404 4.41624 7.70928 4.35388 6.25106 4.08492C5.88359 4.01679 5.51865 3.93569 5.15692 3.84177L6.36633 5.62251C8.95838 6.54531 12.0235 6.54531 14.6162 5.62377V5.62377ZM5.63879 6.69586C8.67177 7.86748 12.317 7.86748 15.35 6.6946C16.616 8.02917 17.6751 9.54578 18.4919 11.194C19.3436 12.9313 19.8072 14.6679 19.7316 16.1645C19.6585 17.6089 19.0904 18.8429 17.7928 19.76C16.4404 20.7156 14.1658 21.4148 10.5256 21.4148C6.88159 21.4148 4.5963 20.7276 3.23131 19.7827C1.92426 18.8769 1.35042 17.6599 1.26916 16.2351C1.18413 14.7548 1.63765 13.027 2.48613 11.2778C3.29556 9.60979 4.42497 8.00417 5.63879 6.69586V6.69586ZM4.91441 2.4667C5.41833 2.61661 5.94493 2.747 6.47908 2.8459C7.83337 3.09534 9.19144 3.13187 10.3505 2.79614C11.7011 2.40266 13.0748 2.09321 14.4637 1.86955C13.3047 1.52058 11.9492 1.2598 10.5256 1.2598C8.35556 1.2598 6.33169 1.86514 4.91441 2.4667V2.4667Z" fill="black"/>
</svg>
