<svg width="22" height="10" viewBox="0 0 22 10" fill="none" xmlns="http://www.w3.org/2000/svg">
<path d="M20.6667 0H0.666667C0.489856 0 0.320286 0.070238 0.195262 0.195262C0.0702379 0.320287 0 0.489856 0 0.666667C0 0.843478 0.0702379 1.01305 0.195262 1.13807C0.320286 1.2631 0.489856 1.33333 0.666667 1.33333H20.6667C20.8435 1.33333 21.013 1.2631 21.1381 1.13807C21.2631 1.01305 21.3333 0.843478 21.3333 0.666667C21.3333 0.489856 21.2631 0.320287 21.1381 0.195262C21.013 0.070238 20.8435 0 20.6667 0Z" fill="black"/>
<path d="M17.3333 4H4.00001C3.8232 4 3.65363 4.07024 3.52861 4.19526C3.40358 4.32029 3.33334 4.48986 3.33334 4.66667C3.33334 4.84348 3.40358 5.01305 3.52861 5.13807C3.65363 5.2631 3.8232 5.33333 4.00001 5.33333H17.3333C17.5102 5.33333 17.6797 5.2631 17.8047 5.13807C17.9298 5.01305 18 4.84348 18 4.66667C18 4.48986 17.9298 4.32029 17.8047 4.19526C17.6797 4.07024 17.5102 4 17.3333 4Z" fill="black"/>
<path d="M14 8H7.33334C7.15653 8 6.98696 8.07024 6.86193 8.19526C6.73691 8.32029 6.66667 8.48986 6.66667 8.66667C6.66667 8.84348 6.73691 9.01305 6.86193 9.13807C6.98696 9.2631 7.15653 9.33333 7.33334 9.33333H14C14.1768 9.33333 14.3464 9.2631 14.4714 9.13807C14.5964 9.01305 14.6667 8.84348 14.6667 8.66667C14.6667 8.48986 14.5964 8.32029 14.4714 8.19526C14.3464 8.07024 14.1768 8 14 8Z" fill="black"/>
</svg>
