<svg width="24" height="16" viewBox="0 0 24 16" fill="none" xmlns="http://www.w3.org/2000/svg">
<path d="M21.3333 0H2.66667C1.95942 0 1.28115 0.25934 0.781049 0.720968C0.280952 1.1826 0 1.8087 0 2.46154L0 5.23077H24V2.46154C24 1.8087 23.719 1.1826 23.219 0.720968C22.7189 0.25934 22.0406 0 21.3333 0Z" fill="#141414"/>
<path d="M0 13.5385C0 14.1913 0.280952 14.8174 0.781049 15.279C1.28115 15.7407 1.95942 16 2.66667 16H21.3333C22.0406 16 22.7189 15.7407 23.219 15.279C23.719 14.8174 24 14.1913 24 13.5385V10.7692H0V13.5385Z" fill="#007A3D"/>
<path d="M0 5.23077H24V10.7692H0V5.23077Z" fill="#EEEEEE"/>
<path d="M0.900668 0.617783H0.900001C0.616803 0.848515 0.390073 1.13226 0.234893 1.45016C0.0797134 1.76805 -0.000359253 2.1128 1.21164e-06 2.46147V13.5384C1.21164e-06 14.2726 0.348001 14.9316 0.900668 15.3827L11.6667 7.99994L0.900668 0.617783Z" fill="#CE1126"/>
<path d="M4.418 8.8234L5.122 9.42402L5.052 8.54094L6 8.4074L5.20867 7.90771L5.68666 7.14033L4.77 7.3994L4.418 6.57602L4.066 7.3994L3.14933 7.14033L3.62667 7.90771L2.836 8.4074L3.78333 8.54094L3.714 9.42402L4.418 8.8234Z" fill="white"/>
</svg>
