<svg width="21" height="20" viewBox="0 0 21 20" fill="none" xmlns="http://www.w3.org/2000/svg">
<path d="M18.9677 0H8.12903V3.30756H9.48387V1.32302H18.9677C19.3742 1.32302 19.6452 1.58763 19.6452 1.98454V9.26117C19.6452 9.65808 19.3742 9.92268 18.9677 9.92268H10.1613V14.5533H6.57097L4.06452 16.4717V14.5533H2.03226C1.62581 14.5533 1.35484 14.2887 1.35484 13.8918V6.61512C1.35484 6.21821 1.62581 5.95361 2.03226 5.95361H10.8387V4.63058H2.03226C0.880645 4.63058 0 5.49055 0 6.61512V13.8918C0 15.0163 0.880645 15.8763 2.03226 15.8763H2.70968V19.25L6.97742 15.8763H11.5161V11.2457H18.9677C20.1194 11.2457 21 10.3857 21 9.26117V1.98454C21 0.859966 20.1194 0 18.9677 0Z" fill="#222222"/>
<path d="M2.84546 13.1648H4.47127L4.87772 12.1064H6.97772L7.38417 13.1648H9.00998L6.70675 7.27734H5.08094L2.84546 13.1648ZM5.89385 8.93112L6.57127 10.9818H5.21643L5.89385 8.93112Z" fill="#222222"/>
<path d="M12.1936 9.26198C12.9388 9.26198 13.9549 9.06353 14.9033 8.60047C15.8517 9.06353 16.9355 9.26198 17.613 9.26198V7.93896C17.613 7.93896 16.9355 7.93896 16.1904 7.67436C17.0033 6.88054 17.613 5.68982 17.613 3.96989V3.30838H15.5807V1.98535H14.2259V3.30838H12.1936V4.6314H16.1904C16.0549 5.82212 15.513 6.54979 14.9033 7.01284C14.4968 6.68209 14.0904 6.21903 13.8194 5.62367H12.3968C12.6678 6.48363 13.0742 7.14515 13.6162 7.67436C12.9388 7.93896 12.3291 7.93896 12.1936 7.93896V9.26198Z" fill="#222222"/>
</svg>
