<svg width="20" height="22" viewBox="0 0 20 22" fill="none" xmlns="http://www.w3.org/2000/svg">
<path d="M9.99999 11.2906C9.70237 11.2918 9.41336 11.3978 9.1774 11.5922C8.94144 11.7867 8.77159 12.0588 8.69396 12.3667C8.61633 12.6747 8.63522 13.0015 8.74772 13.2969C8.86022 13.5922 9.06011 13.8398 9.31666 14.0015V16.0783H10.7V14.0015C10.903 13.8728 11.0714 13.69 11.189 13.4709C11.3065 13.2518 11.3692 13.0037 11.3708 12.751C11.3708 12.5584 11.3353 12.3678 11.2663 12.19C11.1973 12.0123 11.0962 11.8509 10.9688 11.7151C10.8414 11.5794 10.6902 11.472 10.524 11.3991C10.3577 11.3263 10.1796 11.2894 9.99999 11.2906Z" stroke="#878787" stroke-linecap="round" stroke-linejoin="round"/>
<path d="M15.1208 7.93652H4.87501C3.8809 7.93652 3.07501 8.80033 3.07501 9.8659V17.4985C3.07501 18.5641 3.8809 19.4279 4.87501 19.4279H15.1208C16.115 19.4279 16.9208 18.5641 16.9208 17.4985V9.8659C16.9208 8.80033 16.115 7.93652 15.1208 7.93652Z" stroke="#878787" stroke-linecap="round" stroke-linejoin="round"/>
<path d="M5.5625 7.93634V6.77068C5.5625 5.508 6.03046 4.29705 6.86343 3.4042C7.69641 2.51136 8.82616 2.00977 10.0042 2.00977C11.1822 2.00977 12.3119 2.51136 13.1449 3.4042C13.9779 4.29705 14.4458 5.508 14.4458 6.77068V7.93634" stroke="#878787" stroke-linecap="round" stroke-linejoin="round"/>
<rect width="20" height="21.4375" stroke="#B4B4B4"/>
</svg>
