<svg width="28" height="28" viewBox="0 0 28 28" fill="none" xmlns="http://www.w3.org/2000/svg">
<path d="M14.3332 0C18.7353 0 22.8113 1.95262 25.5142 5.24057C25.5912 5.33377 25.6487 5.44151 25.6832 5.55737C25.7177 5.67324 25.7285 5.79486 25.7151 5.91501C25.7016 6.03515 25.6642 6.15136 25.6049 6.25673C25.5456 6.36209 25.4657 6.45445 25.37 6.52832C25.1752 6.68103 24.9285 6.75183 24.6824 6.7257C24.4362 6.69957 24.2099 6.57856 24.0515 6.38835C22.8696 4.95674 21.3847 3.80533 19.7038 3.0172C18.023 2.22907 16.1882 1.82387 14.3318 1.83084C7.45214 1.83084 1.87423 7.27857 1.87423 13.9973C1.87423 20.7159 7.45214 26.1637 14.3318 26.1637C16.215 26.1709 18.0756 25.754 19.7756 24.9439C21.4757 24.1339 22.9716 22.9515 24.1523 21.4844C24.308 21.2922 24.5325 21.1682 24.7781 21.1387C25.0237 21.1092 25.2711 21.1764 25.468 21.3262C25.5645 21.3988 25.6455 21.4901 25.7061 21.5946C25.7667 21.6991 25.8056 21.8147 25.8206 21.9346C25.8356 22.0545 25.8264 22.1761 25.7935 22.2923C25.7606 22.4086 25.7046 22.517 25.629 22.6112C22.9303 25.9845 18.7997 27.9945 14.3332 27.9945C6.41494 27.9945 0 21.7279 0 13.9973C0 6.26657 6.41634 0 14.3332 0ZM23.9325 10.022L27.7202 13.8111C28.0869 14.1764 28.0939 14.7629 27.737 15.1212L24.0361 18.8207C23.8605 18.9925 23.6238 19.0876 23.3781 19.085C23.1324 19.0824 22.8978 18.9823 22.7259 18.8067C22.6387 18.7217 22.5691 18.6202 22.5211 18.5083C22.4731 18.3963 22.4477 18.2759 22.4463 18.1541C22.4448 18.0323 22.4674 17.9114 22.5128 17.7983C22.5581 17.6853 22.6253 17.5822 22.7105 17.4952L24.8759 15.3298H10.4447C10.3231 15.3313 10.2023 15.3088 10.0893 15.2636C9.9763 15.2184 9.87332 15.1513 9.78623 15.0663C9.69915 14.9813 9.62966 14.88 9.58174 14.7681C9.53381 14.6563 9.5084 14.5361 9.50693 14.4144C9.50693 13.9077 9.92685 13.4976 10.4447 13.4976H24.8185L22.6378 11.3168C22.462 11.1451 22.3617 10.9106 22.3588 10.6649C22.3559 10.4192 22.4507 10.1824 22.6224 10.0066C22.7982 9.83498 23.0349 9.74017 23.2806 9.74305C23.5263 9.74594 23.7608 9.84629 23.9325 10.022Z" fill="#009CD9"/>
</svg>
