<svg width="28" height="32" viewBox="0 0 28 32" fill="none" xmlns="http://www.w3.org/2000/svg">
<path d="M14 15.8836C18.11 15.8836 21.4418 12.5518 21.4418 8.44181C21.4418 4.33181 18.11 1 14 1C9.89001 1 6.5582 4.33181 6.5582 8.44181C6.5582 12.5518 9.89001 15.8836 14 15.8836Z" stroke="#009CD9" stroke-width="2"/>
<path d="M21.4418 18.8606H21.9657C23.0538 18.8609 24.1044 19.2585 24.92 19.9788C25.7356 20.699 26.2601 21.6923 26.3951 22.772L26.977 27.4217C27.0294 27.8405 26.992 28.2657 26.8675 28.6691C26.7429 29.0724 26.534 29.4446 26.2546 29.7611C25.9752 30.0775 25.6317 30.3309 25.2469 30.5044C24.8621 30.6779 24.4448 30.7676 24.0226 30.7675H3.97737C3.55525 30.7676 3.13793 30.6779 2.75311 30.5044C2.3683 30.3309 2.02479 30.0775 1.74539 29.7611C1.46598 29.4446 1.25707 29.0724 1.13252 28.6691C1.00797 28.2657 0.97063 27.8405 1.02297 27.4217L1.60344 22.772C1.73842 21.6918 2.2634 20.6981 3.07964 19.9778C3.89588 19.2575 4.94716 18.8602 6.03578 18.8606H6.55819" stroke="#009CD9" stroke-width="2" stroke-linecap="round" stroke-linejoin="round"/>
</svg>
