<svg width="23" height="24" viewBox="0 0 23 24" fill="none" xmlns="http://www.w3.org/2000/svg">
<path d="M17.7271 10.9474C18.3692 16.8882 20.8947 18.6842 20.8947 18.6842H1C1 18.6842 4.31579 16.3267 4.31579 8.07368C4.31579 6.19805 5.01432 4.39868 6.25774 3.07237C7.50226 1.74605 9.19 1 10.9474 1C11.3198 1 11.6901 1.03316 12.0526 1.09947M12.8595 22C12.6654 22.3353 12.3866 22.6136 12.0509 22.8071C11.7153 23.0006 11.3348 23.1024 10.9474 23.1024C10.56 23.1024 10.1794 23.0006 9.84379 22.8071C9.50819 22.6136 9.22936 22.3353 9.03526 22M18.6842 7.63158C19.5636 7.63158 20.407 7.28224 21.0288 6.66041C21.6507 6.03858 22 5.19519 22 4.31579C22 3.43639 21.6507 2.593 21.0288 1.97117C20.407 1.34934 19.5636 1 18.6842 1C17.8048 1 16.9614 1.34934 16.3396 1.97117C15.7178 2.593 15.3684 3.43639 15.3684 4.31579C15.3684 5.19519 15.7178 6.03858 16.3396 6.66041C16.9614 7.28224 17.8048 7.63158 18.6842 7.63158Z" stroke="black" stroke-width="1.5" stroke-linecap="round" stroke-linejoin="round"/>
</svg>
