<svg width="28" height="28" viewBox="0 0 28 28" fill="none" xmlns="http://www.w3.org/2000/svg">
<path d="M0 11.2C0 9.14667 0.4144 7.2044 1.2432 5.3732C2.07107 3.54107 3.255 1.96 4.795 0.63L6.79 2.59C5.53 3.68667 4.55 4.9756 3.85 6.4568C3.15 7.93893 2.8 9.52 2.8 11.2H0ZM25.2 11.2C25.2 9.52 24.85 7.93893 24.15 6.4568C23.45 4.9756 22.47 3.68667 21.21 2.59L23.205 0.63C24.745 1.96 25.9294 3.54107 26.7582 5.3732C27.5861 7.2044 28 9.14667 28 11.2H25.2ZM2.8 23.8V21H5.6V11.2C5.6 9.26333 6.18333 7.54227 7.35 6.0368C8.51667 4.53227 10.0333 3.54667 11.9 3.08V2.1C11.9 1.51667 12.1044 1.02107 12.5132 0.6132C12.9211 0.2044 13.4167 0 14 0C14.5833 0 15.0789 0.2044 15.4868 0.6132C15.8956 1.02107 16.1 1.51667 16.1 2.1V3.08C17.9667 3.54667 19.4833 4.53227 20.65 6.0368C21.8167 7.54227 22.4 9.26333 22.4 11.2V21H25.2V23.8H2.8ZM14 28C13.23 28 12.5711 27.7261 12.0232 27.1782C11.4744 26.6294 11.2 25.97 11.2 25.2H16.8C16.8 25.97 16.5261 26.6294 15.9782 27.1782C15.4294 27.7261 14.77 28 14 28ZM8.4 21H19.6V11.2C19.6 9.66 19.0517 8.34167 17.955 7.245C16.8583 6.14833 15.54 5.6 14 5.6C12.46 5.6 11.1417 6.14833 10.045 7.245C8.94833 8.34167 8.4 9.66 8.4 11.2V21Z" fill="#009CD9"/>
</svg>
