<svg width="24" height="16" viewBox="0 0 24 16" fill="none" xmlns="http://www.w3.org/2000/svg">
<path d="M5.33337 16H21.3334C22.0406 16 22.7189 15.7407 23.219 15.279C23.7191 14.8174 24 14.1913 24 13.5385V11.0769H5.33337V16Z" fill="#008000"/>
<path d="M21.3333 0H5.33331V4.92308H24V2.46154C24 1.8087 23.719 1.1826 23.2189 0.720968C22.7188 0.25934 22.0406 0 21.3333 0Z" fill="#EEEEEE"/>
<path d="M24 4.92308H6V0H2.66667C1.95942 0 1.28115 0.25934 0.781049 0.720968C0.280952 1.1826 0 1.8087 0 2.46154L0 13.5385C0 14.1913 0.280952 14.8174 0.781049 15.279C1.28115 15.7407 1.95942 16 2.66667 16H6V11.0769H24V4.92308Z" fill="#DB161B"/>
<path d="M2.41659 2.12493C2.62525 2.47385 2.62525 2.61047 2.56459 2.64124C2.50459 2.67201 2.40592 2.58585 2.19792 2.23693C1.98925 1.88801 1.74992 1.40924 1.80992 1.37847C1.87059 1.34708 2.20792 1.77662 2.41659 2.12493ZM3.67725 1.91016C3.46859 2.25908 3.34859 2.56677 3.40925 2.59754C3.46925 2.62831 3.68725 2.37047 3.89592 2.02216C4.10392 1.67324 4.22459 1.36554 4.16392 1.33477C4.10325 1.30401 3.88525 1.56185 3.67725 1.91016ZM3.30192 2.47139L3.10392 1.59631L3.08525 1.59262C3.15392 1.56247 3.20792 1.51508 3.20792 1.44677C3.20792 1.34831 3.10992 1.26893 2.98925 1.26893C2.86859 1.26893 2.77059 1.34893 2.77059 1.44739C2.77059 1.51385 2.82059 1.56616 2.88725 1.59693L2.69792 2.48062L3.30192 2.47139Z" fill="#EEEEEE"/>
<path d="M4.46862 4.16372C4.28795 4.02465 3.56928 3.45049 3.22795 3.10772C3.25862 3.00926 3.27662 2.90342 3.26928 2.79019H3.28062V2.79511H3.87462V2.90096H4.60395V2.57419H3.87462V2.68003H3.28128V2.68496H3.26062V2.51942H2.71862V2.68496H2.49995V2.6948H2.07262V2.55942H1.38528V2.91511H2.07262V2.78096H2.49995V2.7908H2.68395L2.65995 3.02096C2.65995 3.02096 1.96728 3.04926 1.78128 3.07696C1.32262 3.14403 1.46862 3.26896 1.84395 3.38465C2.01662 3.43757 2.18862 3.45849 2.35128 3.46649C2.08662 3.72742 1.54662 4.11449 1.41662 4.1828C1.27062 4.25972 1.27062 4.35572 1.55195 4.29849C1.82462 4.24249 2.45528 3.72865 2.67462 3.46896L2.86462 3.46157C2.96462 3.45788 3.04395 3.40003 3.11062 3.32372C3.39528 3.63449 3.95328 4.09542 4.17728 4.22096C4.41662 4.35572 4.52862 4.35265 4.61328 4.33972C4.69795 4.3268 4.65595 4.30772 4.46862 4.16372Z" fill="#EEEEEE"/>
</svg>
