<svg width="18" height="18" viewBox="0 0 18 18" fill="none" xmlns="http://www.w3.org/2000/svg">
<path d="M0.875 16.5H17.125M2.125 1.5V16.5M10.875 1.5V16.5M15.875 5.25V16.5M4.625 4.625H5.25M4.625 7.125H5.25M4.625 9.625H5.25M7.75 4.625H8.375M7.75 7.125H8.375M7.75 9.625H8.375M4.625 16.5V13.6875C4.625 13.17 5.045 12.75 5.5625 12.75H7.4375C7.955 12.75 8.375 13.17 8.375 13.6875V16.5M1.5 1.5H11.5M10.875 5.25H16.5M13.375 8.375H13.3817V8.38167H13.375V8.375ZM13.375 10.875H13.3817V10.8817H13.375V10.875ZM13.375 13.375H13.3817V13.3817H13.375V13.375Z" stroke="#878787" stroke-width="1.5" stroke-linecap="round" stroke-linejoin="round"/>
</svg>
