<svg width="21" height="22" viewBox="0 0 21 22" fill="none" xmlns="http://www.w3.org/2000/svg">
<path d="M3.10448 12.8236C3.82877 9.09555 6.85656 6.44663 10.2624 6.44663C13.6672 6.44663 16.695 9.09555 17.4204 12.8236C17.4491 12.9716 17.5315 13.1012 17.6494 13.184C17.7673 13.2669 17.9111 13.2961 18.0491 13.2653C18.1871 13.2345 18.308 13.1462 18.3853 13.0198C18.4626 12.8934 18.4899 12.7393 18.4611 12.5914C17.636 8.35108 14.1844 5.30829 10.2624 5.30829C6.34042 5.30829 2.88889 8.35108 2.06371 12.5914C2.03498 12.7393 2.06225 12.8934 2.13953 13.0198C2.2168 13.1462 2.33775 13.2345 2.47577 13.2653C2.61378 13.2961 2.75756 13.2669 2.87546 13.184C2.99337 13.1012 3.07575 12.9716 3.10448 12.8236ZM10.2518 8.72332C11.2376 8.72332 12.1831 9.14308 12.8801 9.89026C13.5772 10.6374 13.9688 11.6508 13.9688 12.7075C13.9688 13.7642 13.5772 14.7776 12.8801 15.5248C12.1831 16.2719 11.2376 16.6917 10.2518 16.6917C9.26599 16.6917 8.32054 16.2719 7.62347 15.5248C6.92639 14.7776 6.53477 13.7642 6.53477 12.7075C6.53477 11.6508 6.92639 10.6374 7.62347 9.89026C8.32054 9.14308 9.26599 8.72332 10.2518 8.72332Z" fill="#6A707C"/>
</svg>
