<svg width="32" height="32" viewBox="0 0 32 32" fill="none" xmlns="http://www.w3.org/2000/svg">
<path d="M24.6567 20.8082L22.733 18.8845L26.5804 15.0343C29.7694 11.8481 30.1993 7.1109 27.5437 4.45253C24.8853 1.79687 20.1481 2.22678 16.9591 5.41574L13.1144 9.26318L11.1907 7.33946L15.0381 3.49203C19.291 -0.758103 25.7505 -1.18801 29.4701 2.52881C33.1896 6.24836 32.757 12.7079 28.5069 16.9608L24.6594 20.8082H24.6567ZM20.8093 24.6556L16.9619 28.503C12.709 32.7532 6.24946 33.1831 2.52991 29.4663C-1.18963 25.7467 -0.757002 19.2872 3.49313 15.0343L7.34056 11.1869L9.26428 13.1106L5.41685 16.9608C2.22789 20.147 1.79797 24.8842 4.45363 27.5426C7.112 30.1982 11.8492 29.7683 15.0381 26.5793L18.8856 22.7319L20.8093 24.6556ZM20.8093 9.26318L22.733 11.1869L11.188 22.7319L9.26428 20.8082L20.8093 9.26318Z" fill="#009CD9"/>
</svg>
