<svg width="23" height="24" viewBox="0 0 23 24" fill="none" xmlns="http://www.w3.org/2000/svg">
<path d="M11.5 23.3958C17.299 23.3958 22 18.3824 22 12.1979C22 6.01348 17.299 1 11.5 1C5.70101 1 1 6.01348 1 12.1979C1 18.3824 5.70101 23.3958 11.5 23.3958Z" stroke="#222222" stroke-linecap="round" stroke-linejoin="round"/>
<path d="M11.0117 13.878L12.05 14.9494H13.3368V16.4218H14.6994V17.8546H16.7452V15.7921L13.0726 11.639L13.1 11.5838C13.3644 10.7699 13.3627 9.88447 13.0951 9.07173C12.8276 8.25898 12.31 7.56675 11.6265 7.10772C10.9458 6.65378 10.1392 6.46374 9.34254 6.56961C8.54585 6.67547 7.80766 7.07076 7.25219 7.68897C6.69276 8.31125 6.34687 9.11685 6.27063 9.97508C6.19439 10.8333 6.39228 11.6939 6.83219 12.4171C7.26731 13.1373 7.92146 13.676 8.68486 13.9427C9.44827 14.2095 10.2745 14.1881 11.0249 13.8822L11.0117 13.878Z" stroke="#222222" stroke-linecap="round" stroke-linejoin="round"/>
<path d="M8.52732 9.88021C8.99852 9.88021 9.38051 9.4698 9.38051 8.96354C9.38051 8.45728 8.99852 8.04688 8.52732 8.04688C8.05612 8.04688 7.67413 8.45728 7.67413 8.96354C7.67413 9.4698 8.05612 9.88021 8.52732 9.88021Z" stroke="black" stroke-linecap="round" stroke-linejoin="round"/>
</svg>
