<svg width="16" height="14" viewBox="0 0 16 14" fill="none" xmlns="http://www.w3.org/2000/svg">
<path d="M10.5 0L16 2.39089V7.72286L15 7.28815V3.36219L11 5.10103V6.85344L10 7.28815V5.10103L6 3.36219V4.90405L5 4.46934V2.39089L10.5 0ZM10.5 4.34708L11.8828 3.74256L8.26562 1.9426L6.61719 2.66259L10.5 4.34708ZM12.9609 3.28069L14.3828 2.66259L10.5 0.9713L9.33594 1.48072L12.9609 3.28069ZM9 7.72286L8 8.15757V8.15077L5 9.4549V12.5454L8 11.2345V12.2126L4.5 13.7341L0 11.7711V7.17947L4.5 5.22329L9 7.17947V7.72286ZM4 12.5454V9.4549L1 8.15077V11.2345L4 12.5454ZM4.5 8.70095L7.38281 7.45116L4.5 6.19459L1.61719 7.45116L4.5 8.70095ZM9 8.69416L12.5 7.17268L16 8.69416V12.2737L12.5 13.7952L9 12.2737V8.69416ZM12 12.6065V10.5349L10 9.66546V11.7371L12 12.6065ZM15 11.7371V9.66546L13 10.5349V12.6065L15 11.7371ZM12.5 9.78093L14.3828 8.95906L12.5 8.14398L10.6172 8.95906L12.5 9.78093Z" fill="black"/>
</svg>
