<svg width="24" height="16" viewBox="0 0 24 16" fill="none" xmlns="http://www.w3.org/2000/svg">
<path d="M21.3333 0H7.33331V16H21.3333C22.0406 16 22.7188 15.7407 23.2189 15.279C23.719 14.8174 24 14.1913 24 13.5385V2.46154C24 1.8087 23.719 1.1826 23.2189 0.720968C22.7188 0.25934 22.0406 0 21.3333 0Z" fill="#8D1B3D"/>
<path d="M7.33333 14.2222L10.8633 13.3335L7.33333 12.4443L10.8633 11.5557L7.33333 10.6665L10.8633 9.77785L7.33333 8.88862L10.8633 8L7.33333 7.11138L10.8633 6.22277L7.33333 5.33354L10.8633 4.44492L7.33333 3.55569L10.8633 2.66646L7.33333 1.77785L10.8633 0.889231L7.33333 0H2.66667C1.95942 0 1.28115 0.25934 0.781049 0.720968C0.280952 1.1826 0 1.8087 0 2.46154L0 13.5385C0 14.1913 0.280952 14.8174 0.781049 15.279C1.28115 15.7407 1.95942 16 2.66667 16H7.33333L10.8633 15.1114L7.33333 14.2222Z" fill="#EEEEEE"/>
</svg>
