<svg width="32" height="33" viewBox="0 0 32 33" fill="none" xmlns="http://www.w3.org/2000/svg">
<path d="M19.056 2.256L15.728 5.6H19.2C22.5948 5.6 25.8505 6.94857 28.251 9.34903C30.6514 11.7495 32 15.0052 32 18.4H28.8C28.8 15.8539 27.7886 13.4121 25.9882 11.6118C24.1879 9.81143 21.7461 8.8 19.2 8.8H15.728L19.072 12.144L16.8 14.4L9.6 7.2L11.856 4.944L16.8 0L19.056 2.256ZM0 16.8V32.8H25.6V16.8H0ZM3.2 27.296V22.32C4.16179 21.7614 4.9614 20.9618 5.52 20H20.08C20.6386 20.9618 21.4382 21.7614 22.4 22.32V27.296C21.4518 27.8543 20.6637 28.6479 20.112 29.6H5.52C4.95943 28.6439 4.15996 27.8499 3.2 27.296ZM12.8 28C14.1248 28 15.2 26.568 15.2 24.8C15.2 23.032 14.1248 21.6 12.8 21.6C11.4752 21.6 10.4 23.032 10.4 24.8C10.4 26.568 11.4752 28 12.8 28Z" fill="#009CD9"/>
</svg>
