<svg width="24" height="16" viewBox="0 0 24 16" fill="none" xmlns="http://www.w3.org/2000/svg">
<path d="M24 12C24 14.2091 22.7351 16 20.25 16H3.75C1.26488 16 0 14.2091 0 12V4C0 1.79091 1.26488 0 3.75 0H20.25C22.7351 0 24 1.79091 24 4V12Z" fill="#137A08"/>
<path fill-rule="evenodd" clip-rule="evenodd" d="M11.472 7.75276C11.4454 7.39167 11.505 7.30113 11.9314 7.06149C11.8102 6.95458 11.664 6.92985 11.514 6.91858C11.3344 6.90549 11.1551 6.89967 10.9774 6.88331C10.8859 6.87567 10.8686 6.84076 10.8859 6.75313C10.9339 6.51313 11.0621 6.34658 11.3141 6.27058C11.5594 6.19603 11.799 6.10367 12.048 6.01603C12.0401 5.99531 12.03 5.97494 12.0206 5.95385C11.9926 5.90241 11.9772 5.84542 11.9756 5.78728C11.974 5.72914 11.9862 5.67141 12.0112 5.61858C12.0311 5.57713 12.0532 5.53567 12.078 5.49749C12.2317 5.25931 12.381 5.21531 12.6424 5.33458C12.7249 5.3724 12.8051 5.41785 12.8767 5.47203C13.0845 5.62876 13.1032 5.84985 12.9176 6.03276C12.84 6.10731 12.735 6.15858 12.6416 6.22003C12.588 6.25422 12.5017 6.24476 12.483 6.32913C12.4819 6.33567 12.4504 6.3364 12.4331 6.33931C12.3862 6.34185 12.3349 6.3324 12.2929 6.3484C12.0922 6.4204 11.8946 6.49822 11.697 6.57676C11.6662 6.58767 11.6396 6.60767 11.61 6.62331L11.6152 6.64731C11.7922 6.64731 11.9715 6.64985 12.1481 6.64622C12.5445 6.6364 12.9416 6.62403 13.338 6.61203C13.467 6.60913 13.4824 6.6324 13.4437 6.75203C13.4347 6.77767 13.4262 6.80349 13.4182 6.82949C13.38 6.9644 13.2855 7.02476 13.1456 7.04549C12.7211 7.1044 12.3154 7.23531 11.9167 7.38876C11.8252 7.42513 11.7307 7.47422 11.7262 7.58222C11.7229 7.68803 11.8031 7.75458 11.8909 7.80113C11.9797 7.84731 12.0742 7.88076 12.1669 7.91603C12.2726 7.95458 12.2917 7.98476 12.2644 8.08803C12.2044 8.30403 12.1984 8.31676 11.9591 8.29204C11.4806 8.24185 11.0632 8.07349 10.7812 7.66949C10.7242 7.58731 10.6811 7.49494 10.6245 7.39567C10.6016 7.42403 10.5791 7.44985 10.5566 7.47713C10.3766 7.71676 10.1816 7.94367 9.93337 8.12331C9.7545 8.25385 9.56512 8.35603 9.32887 8.35094C9.05025 8.3444 8.87625 8.20694 8.82262 7.93931C8.81587 7.90622 8.80837 7.87385 8.80125 7.84258C8.541 7.93603 8.28525 8.02876 8.02987 8.11676C7.90462 8.15858 7.77862 8.19676 7.65112 8.22985C7.6065 8.24185 7.55775 8.23749 7.51087 8.24003C7.50562 8.22913 7.5 8.21822 7.49625 8.20658C7.5315 8.18258 7.56525 8.15531 7.60237 8.13458C7.98112 7.92112 8.35612 7.70731 8.73487 7.49531C8.79375 7.46222 8.82075 7.41567 8.84062 7.35458C8.89912 7.19058 8.96437 7.02949 9.02925 6.86731C9.04125 6.83676 9.06337 6.81203 9.09337 6.76476C9.16612 6.91967 9.09675 7.0644 9.13275 7.20876C9.15487 7.19749 9.17662 7.18694 9.19312 7.17313C9.33225 7.06185 9.47325 6.95422 9.60562 6.83676C9.79012 6.67203 9.8175 6.53422 9.7185 6.31167C9.66225 6.18876 9.59925 6.06913 9.53587 5.94985C9.52362 5.92561 9.50363 5.90584 9.47887 5.89349C9.4035 5.85094 9.38062 5.78985 9.40875 5.71494C9.44137 5.6324 9.47925 5.55276 9.52162 5.47531C9.55425 5.41676 9.61087 5.4084 9.65437 5.45749C9.75112 5.56476 9.84262 5.67749 9.92737 5.79276C9.97762 5.86113 9.94987 5.91422 9.87412 5.93676C9.91237 6.0844 9.9555 6.2284 9.98587 6.37422C10.044 6.66513 9.95175 6.91494 9.75112 7.13276C9.564 7.33676 9.35737 7.51822 9.11325 7.65858C9.08325 7.67531 9.05925 7.7244 9.06075 7.75967C9.0615 7.83931 9.096 7.9204 9.1815 7.93531C9.28125 7.95276 9.39075 7.96149 9.48637 7.93931C9.71512 7.88876 9.89812 7.74985 10.0492 7.5844C10.2004 7.41567 10.3275 7.22513 10.4644 7.04476C10.5052 6.99022 10.5067 6.93603 10.4865 6.87131C10.3601 6.4924 10.239 6.11022 10.1141 5.73167C10.0537 5.54876 10.116 5.30513 10.2592 5.19894C10.2836 5.23822 10.3072 5.27458 10.3279 5.31422C10.5851 5.82585 10.7389 6.36622 10.815 6.92985C10.842 7.13931 10.8829 7.34803 11.037 7.51422C11.1525 7.63967 11.3025 7.71058 11.4716 7.75276M12.6491 5.85858C12.6499 5.84985 12.6499 5.8404 12.6499 5.8324C12.5411 5.78513 12.4549 5.68949 12.3011 5.68949C12.3124 5.77494 12.3221 5.84949 12.3319 5.93822L12.6491 5.85858ZM15.9037 12.5666C15.7057 12.5666 15.5302 12.5637 15.3536 12.5684C14.9914 12.576 14.6306 12.5928 14.2665 12.5953C12.2272 12.6102 10.1861 12.6233 8.14575 12.6306C7.77262 12.6313 7.39762 12.6066 7.03425 12.5062C6.86362 12.4589 6.70387 12.3873 6.5775 12.2589C6.5475 12.2284 6.522 12.1899 6.47925 12.136H6.64237C8.88487 12.1499 11.1274 12.1677 13.3691 12.1775C14.1724 12.1822 14.9741 12.1728 15.7774 12.1677C15.8096 12.1677 15.867 12.1575 15.8685 12.1469C15.8745 12.1073 15.876 12.0524 15.8516 12.0277C15.741 11.9088 15.8036 11.8117 15.8899 11.712C15.9247 11.672 15.9615 11.6659 16.0001 11.7099C16.1059 11.8331 16.1374 11.8971 16.0429 12.0146C16.0162 12.048 16.0181 12.1033 16.0039 12.1575C16.0455 12.1608 16.0702 12.1655 16.0935 12.1648C16.476 12.1582 16.8551 12.1502 17.2369 12.1426C17.3089 12.1426 17.382 12.1473 17.454 12.1557C17.6265 12.1749 17.718 12.2564 17.7555 12.4229C17.7877 12.5622 17.7877 12.7029 17.7322 12.8379C17.658 13.0204 17.4866 13.0575 17.334 12.9277C17.3075 12.9086 17.2758 12.8973 17.2429 12.8953C17.1454 12.8924 17.0475 12.8953 16.95 12.896C16.8776 12.8971 16.8056 12.8862 16.7527 12.9655C16.7182 13.0168 16.6552 12.9953 16.6009 12.9619C16.5617 12.9364 16.5168 12.9202 16.47 12.9146C16.3916 12.908 16.3121 12.9182 16.2341 12.9131C16.1422 12.9088 16.068 12.9237 16.0267 13.0164C16.0035 13.0662 15.9615 13.0644 15.9199 13.0262C15.807 12.9277 15.7976 12.8477 15.873 12.7171C15.8951 12.6782 15.8921 12.6269 15.9037 12.5666ZM17.244 12.7666L17.2669 12.532C17.2481 12.5302 17.2327 12.5244 17.2185 12.5244C16.851 12.5335 16.4839 12.5411 16.1156 12.5517C16.0297 12.5542 15.9971 12.612 16.0395 12.6873C16.0766 12.7513 16.1209 12.8037 16.2172 12.7869C16.3031 12.7735 16.3927 12.784 16.4797 12.776C16.5199 12.7714 16.5576 12.7546 16.5874 12.728C16.6466 12.6735 16.7025 12.6749 16.7632 12.7189C16.788 12.7382 16.8139 12.7633 16.8394 12.7644C16.9732 12.7702 17.1086 12.7666 17.244 12.7666Z" fill="white"/>
<path fill-rule="evenodd" clip-rule="evenodd" d="M7.17749 6.39241C7.07624 6.4215 6.97537 6.45059 6.87449 6.48295C6.77062 6.51423 6.67387 6.49059 6.58349 6.4455C6.55424 6.43277 6.52162 6.40004 6.51749 6.37423C6.48299 6.12914 6.46874 5.88732 6.65287 5.67932C6.78112 5.53277 6.91012 5.50768 7.05599 5.6375C7.16774 5.73495 7.25924 5.8535 7.36799 5.97168C7.40249 5.95241 7.45687 5.92805 7.50449 5.89495C7.51509 5.88568 7.52364 5.87443 7.52964 5.86187C7.53563 5.84931 7.53894 5.8357 7.53937 5.82186C7.51237 5.51277 7.48199 5.2015 7.45124 4.89168C7.41674 4.54295 7.38074 4.19495 7.34474 3.8455C7.34273 3.82148 7.3382 3.79772 7.33124 3.77459C7.28437 3.63532 7.36574 3.45568 7.51012 3.39932C7.52812 3.39168 7.57612 3.41241 7.58624 3.43168C7.62074 3.50041 7.64437 3.5735 7.67137 3.64514C7.72124 3.77641 7.77074 3.90914 7.81949 4.04041C7.83356 4.07407 7.84217 4.10964 7.84499 4.14586C7.85549 4.27204 7.80412 4.31168 7.67962 4.27895C7.71262 4.75459 7.74787 5.22914 7.78424 5.72186C7.84049 5.6775 7.87987 5.63968 7.92449 5.60986C7.95412 5.59023 7.99049 5.58114 8.02387 5.56695C8.03849 5.60259 8.06137 5.63568 8.06474 5.67095C8.07374 5.73241 8.05724 5.79786 8.07637 5.8535C8.09737 5.91168 8.13524 5.98841 8.18512 6.00695C8.23387 6.02477 8.33249 5.99714 8.36549 5.95604C8.44687 5.85895 8.50499 5.74332 8.56912 5.63277C8.58524 5.60477 8.59537 5.57423 8.60812 5.54514H8.63737C8.64974 5.60586 8.65762 5.67023 8.67712 5.72914C8.70037 5.7975 8.72324 5.87205 8.76599 5.92623C8.83949 6.01895 8.94187 5.99677 8.96737 5.88659C8.98274 5.8175 8.97599 5.74114 8.96474 5.67204C8.95012 5.59423 8.98199 5.51895 9.06037 5.50477C9.08212 5.5015 9.12599 5.52732 9.13237 5.54768C9.18524 5.73895 9.18112 5.93132 9.09899 6.11277C9.03299 6.25532 8.77162 6.26441 8.63774 6.1375C8.61337 6.11459 8.59124 6.08623 8.55974 6.05314C8.45774 6.15495 8.35237 6.24695 8.19787 6.26077C8.04412 6.27423 7.91962 6.23495 7.83487 6.08586C7.82437 6.11714 7.81387 6.13277 7.81387 6.14877C7.82024 6.30805 7.82887 6.46659 7.83487 6.62514C7.84649 6.91023 7.82999 7.19168 7.71074 7.45968C7.61407 7.67813 7.44031 7.85603 7.22062 7.9615C6.86099 8.13895 6.48149 8.25423 6.07349 8.25604C6.00224 8.25604 5.92837 8.24404 5.85899 8.23023C5.58749 8.17568 5.45137 7.99532 5.38424 7.75023C5.27887 7.36732 5.30362 6.99059 5.43599 6.61714C5.44724 6.5855 5.46862 6.55605 5.48474 6.52623C5.49393 6.52941 5.50351 6.53137 5.51324 6.53204C5.51324 6.63277 5.52487 6.73495 5.51212 6.83241C5.47874 7.07095 5.48887 7.3015 5.57549 7.52659C5.65462 7.73532 5.81587 7.85241 6.04499 7.8655C6.49087 7.89023 6.87187 7.7255 7.22624 7.47932C7.47149 7.30877 7.56899 7.07459 7.56899 6.79277C7.56787 6.6095 7.56899 6.4255 7.56899 6.22986C7.49812 6.25932 7.41599 6.2615 7.42762 6.35932C7.48762 6.89677 7.17412 7.20732 6.72974 7.43423C6.60974 7.49641 6.47737 7.54841 6.34387 7.57423C6.00224 7.64077 5.69549 7.41677 5.64299 7.08186C5.60587 6.84223 5.64712 6.60877 5.70787 6.37714C5.71837 6.34005 5.74799 6.30805 5.76824 6.27241C5.77608 6.27615 5.7844 6.27885 5.79299 6.28041C5.79299 6.32695 5.79749 6.37314 5.79299 6.41859C5.77499 6.60295 5.77387 6.78586 5.85374 6.95859C5.95987 7.19168 6.13199 7.26586 6.38099 7.18623C6.69037 7.08732 6.92887 6.89059 7.12949 6.65059C7.18124 6.58768 7.18499 6.49095 7.21087 6.40914C7.20149 6.40295 7.18874 6.3975 7.17749 6.39241ZM7.06499 6.09205C7.01999 6.03895 6.99487 5.99205 6.95624 5.96695C6.91312 5.93859 6.85574 5.92914 6.80624 5.91168C6.79387 5.96186 6.76724 6.01423 6.77549 6.06186C6.77887 6.09132 6.83362 6.13241 6.86699 6.13495C6.92662 6.13677 6.98624 6.11095 7.06499 6.09205ZM17.8204 5.30914C17.8305 5.51605 17.8429 5.72186 17.8526 5.92914C17.8699 6.27423 17.8965 6.61823 17.8954 6.96259C17.893 7.1026 17.8575 7.24021 17.7915 7.36477C17.6299 7.66914 17.3456 7.70877 17.0415 7.5255C16.9477 7.46986 16.8761 7.3775 16.8041 7.29277C16.7625 7.24623 16.7317 7.23386 16.6946 7.28295C16.64 7.35324 16.5899 7.42671 16.5446 7.50295C16.4284 7.70586 16.3181 7.91205 16.203 8.11532C16.1799 8.15862 16.1477 8.19677 16.1085 8.22732C16.074 8.25204 16.0207 8.27277 15.981 8.26768C15.7811 8.23641 15.4942 7.9215 15.4972 7.72332C15.4984 7.55423 15.5209 7.38368 15.5471 7.21532C15.5632 7.10586 15.5996 7.00041 15.6274 6.89277C15.6412 6.89423 15.6547 6.89423 15.6675 6.89532C15.675 6.94841 15.69 7.0015 15.69 7.05495C15.6874 7.28695 15.7054 7.51132 15.8029 7.72659C15.8152 7.75132 15.8261 7.7775 15.8415 7.80041C15.9146 7.91241 16.0084 7.91641 16.086 7.80623C16.1272 7.74586 16.158 7.67859 16.1955 7.61459C16.3331 7.37859 16.4659 7.13823 16.6106 6.90732C16.7036 6.75714 16.7947 6.75714 16.917 6.89059C16.9965 6.97932 17.067 7.08004 17.1551 7.15968C17.2879 7.27895 17.475 7.23495 17.5372 7.07023C17.5714 6.97386 17.5961 6.86732 17.592 6.76623C17.5744 6.27677 17.5477 5.78477 17.5219 5.29532C17.5151 5.18841 17.4986 5.08077 17.4997 4.97459C17.5027 4.88011 17.4685 4.78807 17.4041 4.71714C17.2181 4.49423 17.0392 4.26514 16.8532 4.04223C16.7584 3.93023 16.6995 3.81641 16.7212 3.66732C16.7329 3.59823 16.7194 3.5255 16.725 3.45604C16.728 3.42586 16.7411 3.3815 16.7632 3.37095C16.7857 3.36114 16.8334 3.37677 16.854 3.39641C16.9991 3.52805 17.1409 3.66186 17.28 3.79859C17.34 3.85677 17.3287 3.89241 17.2402 3.94768C17.295 4.02659 17.3509 4.10441 17.4045 4.1815C17.414 4.17939 17.4237 4.17769 17.4334 4.17641C17.4161 4.0495 17.4199 3.91532 17.3771 3.79968C17.31 3.62186 17.3797 3.49023 17.4802 3.36077C17.5327 3.29277 17.5744 3.3375 17.5965 3.39204C17.6527 3.53132 17.7056 3.66986 17.757 3.81168C17.7889 3.89786 17.8144 3.98732 17.847 4.09023C17.7941 4.08695 17.7664 4.08368 17.7409 4.0815C17.7401 4.08805 17.736 4.09241 17.736 4.09823C17.7476 4.28114 17.7581 4.4655 17.7716 4.64732C17.7735 4.66805 17.7754 4.69095 17.7877 4.70768C17.9167 4.8855 18.0502 5.06332 18.1972 5.23423C18.1766 5.10186 18.1511 4.96768 18.1372 4.83423C18.0975 4.47314 18.0735 4.11023 18.0214 3.75132C17.9996 3.59786 18.033 3.47641 18.1245 3.36077C18.1961 3.27095 18.2557 3.27277 18.2906 3.37968C18.3622 3.59968 18.4249 3.82405 18.4837 4.04914C18.5055 4.13059 18.4684 4.16186 18.3727 4.1655C18.3937 4.45532 18.4155 4.74441 18.4387 5.03204C18.4541 5.21604 18.4684 5.39932 18.4901 5.58041C18.4972 5.63132 18.5145 5.68732 18.5441 5.73132C18.7219 5.99386 18.9071 6.25314 19.0834 6.51568C19.1992 6.68877 19.2604 6.87895 19.245 7.08768C19.2431 7.11641 19.2371 7.14404 19.2315 7.20077C18.9986 6.8695 18.7826 6.56368 18.5674 6.25641C18.5419 6.58477 18.6251 6.91314 18.4612 7.21568C18.4511 7.21568 18.4391 7.21568 18.429 7.21641C18.423 7.17132 18.4095 7.12695 18.4117 7.08041C18.4267 6.72041 18.3982 6.36114 18.3307 6.00732C18.3255 5.98332 18.3221 5.95641 18.3071 5.93823C18.1545 5.72586 17.9989 5.51604 17.844 5.30477C17.8361 5.30586 17.8282 5.30768 17.8207 5.30914" fill="white"/>
<path fill-rule="evenodd" clip-rule="evenodd" d="M6.2685 3.63532C6.435 3.7586 6.51113 3.90441 6.49238 4.0826C6.46763 4.30478 6.52125 4.51314 6.58088 4.72187C6.62475 4.87242 6.7185 4.9346 6.86963 4.93896C6.99375 4.94078 7.04325 4.89278 7.017 4.77641C6.97088 4.58114 6.91463 4.38769 6.8625 4.19423C6.85249 4.15525 6.83724 4.11772 6.81713 4.0826C6.73425 3.93605 6.77738 3.81787 6.89475 3.70987C6.94463 3.66332 6.98813 3.65751 7.02975 3.7066C7.09388 3.78187 7.16138 3.85641 7.2105 3.94114C7.27238 4.04296 7.25325 4.08732 7.14338 4.14769C7.179 4.29714 7.2285 4.4466 7.24538 4.59932C7.26263 4.73823 7.26563 4.8866 7.23713 5.02332C7.19438 5.22332 6.909 5.37278 6.70913 5.32623C6.59175 5.29751 6.52125 5.22151 6.47625 5.11787C6.45713 5.07387 6.44175 5.02732 6.41888 4.96696C6.39225 5.00223 6.37125 5.02332 6.35475 5.04769C6.32138 5.09496 6.30038 5.15605 6.2565 5.19096C6.14363 5.27932 6.16088 5.38987 6.17063 5.50587C6.19425 5.82296 6.21825 6.13932 6.23175 6.45641C6.23738 6.58478 6.204 6.70805 6.0885 6.80587C6.06675 6.58041 6.04575 6.35641 6.02138 6.13132C5.997 5.90405 5.96925 5.67641 5.9415 5.44405C5.92763 5.44114 5.91488 5.43532 5.8995 5.43423C5.64938 5.40987 5.5005 5.28551 5.43413 5.04841C5.38088 4.85896 5.38875 4.66732 5.40863 4.47678C5.4165 4.39678 5.4195 4.31751 5.42588 4.23678C5.4105 4.2346 5.39775 4.23096 5.38313 4.22914C5.34638 4.35787 5.30775 4.4866 5.2755 4.61678C5.2275 4.80041 5.18963 4.98478 5.14163 5.16732C5.12669 5.21043 5.10268 5.25005 5.07113 5.28369C4.9755 5.40332 4.85738 5.40114 4.7865 5.26769C4.72354 5.14855 4.67424 5.02307 4.6395 4.89351C4.55663 4.61659 4.55133 4.32326 4.62413 4.04369C4.63238 4.00878 4.653 3.97532 4.66688 3.94114C4.6755 3.94187 4.68525 3.94405 4.69538 3.94405C4.69913 3.98332 4.704 4.02478 4.70813 4.06441C4.7325 4.28732 4.75088 4.51242 4.78688 4.73569C4.7985 4.81351 4.84238 4.8906 4.88775 4.95787C4.93463 5.03023 5.00063 5.02478 5.02725 4.94587C5.067 4.82078 5.0985 4.69242 5.115 4.56405C5.142 4.32623 5.20725 4.10332 5.34188 3.90223C5.38013 3.84769 5.427 3.79387 5.48213 3.75823C5.577 3.69787 5.676 3.74696 5.67225 3.85532C5.66759 3.96749 5.65087 4.07888 5.62238 4.18769C5.55975 4.41496 5.56575 4.6346 5.676 4.84623C5.7315 4.94623 5.78888 4.98187 5.90738 4.99096C5.90025 4.89314 5.89875 4.79641 5.886 4.70078C5.85263 4.42078 5.81588 4.13932 5.77725 3.85932C5.76511 3.77948 5.74745 3.70051 5.72438 3.62296C5.70638 3.54841 5.7645 3.38805 5.83463 3.35641C5.85525 3.3466 5.90775 3.36151 5.91825 3.38005C5.98988 3.51423 6.06113 3.65023 6.11888 3.79096C6.13216 3.82253 6.13424 3.85748 6.12481 3.89033C6.11537 3.92317 6.09495 3.95205 6.06675 3.97241C6.05025 3.98405 6.0405 4.01278 6.04163 4.0346C6.06938 4.33169 6.10013 4.62987 6.12938 4.92587C6.13013 4.93169 6.13613 4.93532 6.14063 4.93969C6.26588 4.86187 6.33825 4.70041 6.312 4.56623C6.27413 4.38369 6.23438 4.2026 6.20175 4.0186C6.17813 3.89205 6.21225 3.77278 6.2685 3.63532ZM9.58163 3.70551C9.57863 3.73532 9.57713 3.76369 9.5715 3.79132C9.52988 4.00951 9.52125 4.22951 9.56888 4.44732C9.58913 4.5386 9.63675 4.62951 9.68738 4.71132C9.71063 4.74841 9.77138 4.78623 9.813 4.78405C9.84675 4.78223 9.89175 4.72769 9.909 4.68696C10.0054 4.47969 10.089 4.26551 10.1914 4.05896C10.2548 3.93023 10.335 3.80732 10.4194 3.69096C10.4501 3.64987 10.5285 3.59569 10.563 3.60878C10.6384 3.6346 10.6714 3.71241 10.6605 3.79823C10.6474 3.8946 10.6238 3.99096 10.6196 4.08732C10.6118 4.28551 10.6013 4.48441 10.6118 4.68223C10.6219 4.89496 10.7876 4.98478 10.9928 4.89932C11.3036 4.7706 11.3824 4.58223 11.3614 4.27896C11.346 4.04769 11.2868 3.81642 11.2429 3.5866C11.2166 3.43678 11.3153 3.33932 11.3843 3.20987C11.4971 3.33751 11.5286 3.47496 11.5478 3.61132C11.5815 3.83751 11.5946 4.06623 11.6303 4.29314C11.6558 4.45969 11.7143 4.6186 11.8298 4.75132C11.8804 4.80987 11.9393 4.85714 12.0248 4.83023C12.1129 4.80442 12.1403 4.73205 12.1478 4.65169C12.1669 4.44514 12.1223 4.24514 12.0593 4.04987C12.0198 3.92784 11.977 3.80683 11.931 3.68696C11.9055 3.62187 11.9119 3.57132 11.9606 3.52041C11.997 3.4826 12.0188 3.43314 12.0465 3.38914C12.0953 3.30623 12.126 3.29896 12.2014 3.35532C12.3488 3.46769 12.4369 3.61751 12.4849 3.78878C12.4928 3.81714 12.4736 3.85532 12.4665 3.88732C12.4343 3.88114 12.4009 3.8786 12.372 3.86623C12.3435 3.85496 12.3195 3.83387 12.2768 3.80587C12.3128 3.94114 12.3454 4.05532 12.372 4.17314C12.4125 4.36114 12.441 4.55205 12.3836 4.7426C12.375 4.77496 12.3675 4.80769 12.3559 4.84005C12.228 5.17241 11.9516 5.24005 11.676 5.0066C11.6171 4.95641 11.5564 4.90914 11.5058 4.86841C11.409 4.95642 11.298 5.06223 11.1806 5.15932C11.1379 5.19678 11.079 5.2186 11.0231 5.24005C10.7711 5.33751 10.5484 5.24223 10.4513 4.99787C10.371 4.80114 10.3853 4.59569 10.3988 4.39096C10.4014 4.34442 10.3988 4.29641 10.3988 4.24914C10.3883 4.2463 10.3778 4.24375 10.3673 4.24151C10.3451 4.28441 10.3193 4.3266 10.3024 4.37278C10.2315 4.55532 10.1685 4.74078 10.0958 4.92296C9.99188 5.18551 9.83325 5.20441 9.65063 4.98623C9.33263 4.60151 9.34688 4.18441 9.5205 3.75242C9.52838 3.73423 9.54375 3.71714 9.555 3.70042C9.56329 3.70441 9.57237 3.70665 9.58163 3.70696M13.4531 4.3746C13.4355 4.20223 13.4464 4.01896 13.3894 3.86114C13.3665 3.80195 13.3563 3.73885 13.3594 3.67571C13.3625 3.61257 13.3788 3.55069 13.4074 3.49387C13.4261 3.45787 13.4678 3.4106 13.5011 3.40841C13.5345 3.40623 13.587 3.44769 13.6024 3.48223C13.6973 3.70187 13.7888 3.92114 13.8694 4.14623C13.9095 4.26005 13.872 4.29969 13.7531 4.29023C13.7625 4.49496 13.7704 4.6986 13.785 4.90151C13.7858 4.92914 13.8113 4.95605 13.8266 4.98332C14.0981 5.42951 14.3768 5.87242 14.6385 6.32405C14.7686 6.54623 14.8695 6.78551 14.907 7.04369C14.9149 7.09532 14.9134 7.14987 14.9153 7.20332C14.9054 7.20873 14.8952 7.2137 14.8849 7.21823C14.8616 7.18841 14.8331 7.16114 14.8178 7.12769C14.5684 6.55532 14.226 6.03314 13.8851 5.50805C13.8679 5.48332 13.8503 5.46005 13.8169 5.4146C13.8341 5.61751 13.8503 5.79605 13.8649 5.97278C13.8983 6.36441 13.9774 6.75423 13.929 7.14842C13.905 7.33496 13.8458 7.51642 13.7959 7.69787C13.7858 7.74151 13.7505 7.77932 13.7254 7.8186C13.7119 7.81532 13.6969 7.81351 13.6845 7.8106C13.6845 7.76369 13.6751 7.7146 13.6864 7.66914C13.7798 7.31751 13.7464 6.96078 13.7044 6.60623C13.65 6.13641 13.5833 5.66842 13.5293 5.19896C13.5079 5.01714 13.4659 4.85169 13.3425 4.70441C13.1614 4.48405 13.0028 4.24987 12.828 4.02478C12.7763 3.95896 12.7031 3.90878 12.6473 3.84587C12.615 3.81169 12.5824 3.76623 12.5768 3.72405C12.5654 3.61156 12.5615 3.49848 12.5651 3.38551C12.5651 3.35387 12.5839 3.30805 12.6075 3.29496C12.6323 3.28405 12.6836 3.29569 12.7076 3.31642C12.8921 3.47823 13.0744 3.64223 13.2518 3.81096C13.2825 3.83932 13.2866 3.89496 13.3031 3.93969C13.254 3.94951 13.2064 3.96114 13.1501 3.97351C13.2416 4.10332 13.3373 4.2426 13.4359 4.38151C13.4415 4.3786 13.4464 4.37569 13.4531 4.37351M19.4569 4.04732C19.476 4.27605 19.4955 4.51278 19.5161 4.74805C19.557 5.21423 19.6005 5.67823 19.6421 6.14369C19.6758 6.46886 19.6625 6.79702 19.6024 7.1186C19.5154 7.56332 19.3178 7.93641 18.8576 8.11714C18.723 8.17023 18.576 8.19787 18.4328 8.2335C18.3934 8.24187 18.3495 8.23423 18.3075 8.23423C18.3038 8.22332 18.2981 8.21423 18.2948 8.20369C18.3364 8.16587 18.3743 8.12478 18.4185 8.09169C18.5689 7.97969 18.7249 7.87787 18.8719 7.76296C19.224 7.48441 19.3905 7.11932 19.3665 6.68514C19.3412 6.23727 19.3056 5.79001 19.2596 5.34369C19.2146 4.88914 19.1576 4.43532 19.1029 3.98151C19.0886 3.86332 19.0684 3.74623 19.0504 3.62878C19.0358 3.54369 19.146 3.32769 19.2263 3.30332C19.2454 3.29823 19.2923 3.32187 19.3024 3.34405C19.3999 3.54223 19.4921 3.74151 19.5833 3.9426C19.5945 3.97351 19.587 4.01096 19.5889 4.04732H19.4569Z" fill="white"/>
<path fill-rule="evenodd" clip-rule="evenodd" d="M13.8375 8.30835C13.8881 8.28398 13.9365 8.25053 13.9886 8.23671C14.3377 8.14435 14.583 7.91671 14.8196 7.67089C15.0356 7.44689 15.0956 7.1818 15.0716 6.88471C15.0435 6.51744 15.0319 6.14762 15.0004 5.78035C14.9614 5.32362 14.9089 4.87017 14.859 4.41526C14.8415 4.25484 14.8196 4.09491 14.7934 3.93562C14.7866 3.88738 14.775 3.83989 14.7589 3.7938C14.7311 3.70435 14.7435 3.62726 14.8136 3.55889C14.8804 3.49889 14.9419 3.43489 15.0161 3.36071C15.0416 3.40107 15.0712 3.43089 15.0825 3.46435C15.1414 3.65598 15.1999 3.8498 15.2527 4.04398C15.2809 4.14471 15.2554 4.16471 15.1324 4.1418C15.1324 4.24035 15.1252 4.33707 15.1331 4.43235C15.1894 5.21344 15.3127 5.99053 15.303 6.77671C15.2989 7.07053 15.2951 7.36507 15.1556 7.63526C15.0296 7.87853 14.8399 8.07489 14.6152 8.2378C14.5547 8.2808 14.4848 8.30967 14.4109 8.32217C14.2586 8.34508 14.1049 8.3538 13.9515 8.36435C13.9162 8.36617 13.8799 8.35053 13.8442 8.34398C13.8426 8.33201 13.8403 8.32012 13.8375 8.30835ZM15.8362 4.21853C15.8539 4.40144 15.867 4.56798 15.8872 4.73562C15.9397 5.18944 15.9941 5.64398 16.0515 6.09707C16.0789 6.31707 16.1197 6.53671 16.1512 6.75671C16.1902 7.03598 16.1317 7.29744 15.9982 7.54289C15.9746 7.58653 15.9304 7.61817 15.8955 7.65489C15.8846 7.65307 15.8741 7.64944 15.864 7.64798C15.8546 7.60871 15.8332 7.56689 15.8419 7.5338C15.9229 7.21053 15.8689 6.89089 15.8246 6.57017C15.7612 6.13017 15.7091 5.68762 15.645 5.24798C15.5775 4.79235 15.5092 4.33671 15.4309 3.88289C15.3975 3.68507 15.4331 3.51562 15.5606 3.36035C15.6315 3.27417 15.6922 3.27889 15.7357 3.37817C15.7777 3.47453 15.8044 3.57307 15.8456 3.66944C15.903 3.80507 15.9709 3.93526 16.0279 4.07089C16.0492 4.12107 16.0511 4.17853 16.0612 4.23089C16.008 4.23344 15.9536 4.23671 15.8996 4.23671C15.8846 4.23635 15.8707 4.22907 15.8362 4.21853ZM8.09362 4.66798C8.13337 4.63562 8.17462 4.59998 8.2155 4.56798C8.39025 4.42907 8.56762 4.29307 8.73975 4.1498C8.8065 4.09307 8.85787 4.01817 8.91675 3.95453C8.77612 3.75126 8.79037 3.5338 8.94825 3.40326C9.01612 3.34726 9.09112 3.31562 9.18187 3.35562C9.2685 3.39671 9.29362 3.47126 9.28387 3.55526C9.27562 3.63307 9.2505 3.71017 9.23625 3.78544C9.22612 3.83998 9.22912 3.89707 9.21412 3.94944C9.19999 3.9855 9.1774 4.01787 9.14812 4.04398C9.11437 4.07635 9.063 4.09526 9.0345 4.13017C8.8155 4.39962 8.52562 4.56907 8.19975 4.68835C8.17312 4.6978 8.14162 4.69671 8.11162 4.70035C8.106 4.69017 8.10037 4.67889 8.09362 4.66798ZM9.08925 3.58071C9.07312 3.57817 9.057 3.57307 9.04162 3.57089C9.0315 3.6218 9.0195 3.67344 9.01012 3.72398L9.04912 3.73089C9.06375 3.67998 9.075 3.63089 9.08925 3.58071ZM4.94212 6.89962C4.97475 7.02835 4.974 7.13635 4.94625 7.25235C4.91287 7.39417 4.8975 7.53962 4.87725 7.68326C4.87425 7.7058 4.87725 7.73417 4.88962 7.75344C4.91437 7.79235 4.9395 7.84326 4.97662 7.85889C4.99875 7.86762 5.04825 7.81671 5.0805 7.7898C5.09962 7.77344 5.109 7.74362 5.13037 7.73489C5.14725 7.72871 5.18737 7.73635 5.19262 7.7498C5.24325 7.85744 5.1495 8.08907 5.03737 8.14071C4.91775 8.19598 4.7895 8.14835 4.76062 8.01053C4.72987 7.87235 4.70737 7.72144 4.72987 7.58435C4.76587 7.37017 4.84012 7.16216 4.90012 6.95126C4.905 6.93562 4.92225 6.92435 4.94212 6.89962ZM16.7764 5.38762L16.5349 4.97598C16.3999 5.04071 16.3684 5.02253 16.3751 4.89017C16.3774 4.85671 16.3657 4.82071 16.374 4.79053C16.3845 4.75671 16.4047 4.71053 16.4329 4.69962C16.4599 4.69126 16.5165 4.71344 16.5337 4.73817C16.5877 4.81962 16.6294 4.90835 16.6759 4.99489C16.6954 5.03089 16.7134 5.07053 16.7516 5.10507C16.7516 5.03817 16.7505 4.9738 16.7516 4.90653C16.7542 4.82326 16.7456 4.73526 16.7685 4.65635C16.7839 4.60471 16.842 4.56107 16.8877 4.52435C16.9027 4.51126 16.9582 4.5178 16.9676 4.53198C17.0025 4.58253 17.0344 4.6378 17.0482 4.69526C17.0606 4.74253 17.0351 4.78507 16.9736 4.7538C16.8844 4.71017 16.8555 4.75562 16.8529 4.82762C16.8472 4.96289 16.8499 5.09598 16.8442 5.23053C16.8435 5.27962 16.8262 5.32907 16.8157 5.38035C16.8026 5.38398 16.7887 5.38544 16.7764 5.38762ZM4.70062 6.39017C4.83337 6.18471 5.01 6.02653 5.22225 5.90798C5.35687 5.83271 5.50312 5.77635 5.64825 5.71635C5.691 5.6978 5.7495 5.65707 5.77837 5.73926C5.808 5.82144 5.78287 5.88289 5.70825 5.91198C5.61487 5.94726 5.51512 5.97017 5.42662 6.01453C5.20087 6.12617 4.98 6.24617 4.7565 6.36362C4.73812 6.37344 4.71975 6.3818 4.70062 6.39017ZM13.4295 7.92253C13.275 8.05126 13.1325 8.19962 12.912 8.22726C12.768 8.24617 12.6922 8.15889 12.7249 8.02107C12.7365 7.97271 12.7462 7.92362 12.7601 7.86435C12.6874 7.87526 12.6311 7.88507 12.5685 7.89598C12.6 7.82035 12.8186 7.6738 12.8857 7.68362C12.9079 7.68653 12.9371 7.73198 12.936 7.75489C12.9341 7.80944 12.9097 7.86253 12.9037 7.91635C12.8989 7.95598 12.9086 7.99671 12.9105 8.03708C12.9525 8.0338 12.9994 8.03707 13.0369 8.02471C13.1216 7.99417 13.2026 7.95198 13.287 7.91889C13.3267 7.90289 13.3717 7.89598 13.4137 7.88471C13.4179 7.89744 13.425 7.91089 13.4295 7.92253ZM17.6287 7.71271C17.661 7.71635 17.6936 7.71344 17.7225 7.72326C17.7787 7.73817 17.8061 7.77562 17.7814 7.8338C17.7709 7.85926 17.7566 7.88326 17.7427 7.90653C17.7112 7.96689 17.6981 8.01235 17.7975 8.0098C17.82 8.0098 17.8597 8.02726 17.8624 8.04398C17.8684 8.06871 17.8609 8.1098 17.8402 8.12544C17.7409 8.20253 17.6299 8.25998 17.4986 8.25598C17.472 8.25526 17.43 8.23453 17.4262 8.21453C17.4184 8.18835 17.4311 8.14835 17.4495 8.12544C17.481 8.08835 17.5267 8.06071 17.5601 8.0258C17.5972 7.98726 17.6021 7.94253 17.5522 7.90907C17.5024 7.87562 17.4304 7.84617 17.4739 7.77853C17.5005 7.73817 17.5676 7.72144 17.6175 7.69344C17.6205 7.69962 17.6257 7.7058 17.6287 7.71271ZM11.4307 5.78035C11.4412 5.76907 11.4367 5.77271 11.4326 5.77744C11.4034 5.83017 11.3726 5.90689 11.3017 5.8818C11.2718 5.86818 11.245 5.84891 11.2229 5.82513C11.2007 5.80134 11.1837 5.77351 11.1727 5.74326C11.1491 5.65962 11.1585 5.56617 11.1544 5.47744C11.1652 5.47635 11.1757 5.47417 11.187 5.47235C11.2245 5.55562 11.2627 5.64035 11.2987 5.72398C11.3122 5.72326 11.3265 5.72144 11.3389 5.72071C11.361 5.63198 11.3816 5.5418 11.4037 5.45307L11.4292 5.45053C11.4754 5.52689 11.5211 5.60471 11.5669 5.68362C11.5804 5.68289 11.5912 5.67998 11.6032 5.67926L11.6471 5.35235C11.7247 5.44762 11.7375 5.53453 11.7386 5.62653C11.7386 5.70144 11.7195 5.77817 11.6419 5.79962C11.5867 5.81526 11.5177 5.78944 11.4307 5.78035ZM16.464 6.15126C16.4872 6.11417 16.5026 6.06798 16.5356 6.03889C16.635 5.95526 16.7415 5.87889 16.8431 5.79853C16.9549 5.70835 17.0625 5.61598 17.1761 5.52689C17.1975 5.51017 17.2365 5.4898 17.2549 5.4978C17.277 5.50762 17.2882 5.54689 17.2939 5.57344C17.3089 5.65017 17.286 5.70835 17.2136 5.75126C17.0002 5.87998 16.7902 6.01417 16.5772 6.14362C16.5517 6.15853 16.5232 6.16689 16.4936 6.17889C16.4843 6.16914 16.4744 6.15992 16.464 6.15126ZM18.81 4.52726C18.8006 4.46253 18.7995 4.39671 18.7815 4.33344C18.7414 4.18544 18.7039 4.0338 18.6424 3.8938C18.6056 3.8058 18.6037 3.73817 18.6585 3.6658C18.7106 3.59744 18.7489 3.59489 18.7792 3.67089C18.8287 3.79598 18.879 3.92253 18.8959 4.05235C18.9142 4.18035 18.8921 4.31162 18.8835 4.44107C18.8816 4.47162 18.858 4.49998 18.8452 4.52907C18.8335 4.52794 18.8218 4.52734 18.81 4.52726ZM14.2875 4.16798C14.2875 4.10762 14.2792 4.06253 14.2897 4.0218C14.3295 3.86435 14.2744 3.74144 14.1619 3.6338C14.0756 3.5498 14.073 3.45744 14.1634 3.38144C14.1855 3.36362 14.2455 3.35817 14.2661 3.37453C14.4517 3.51707 14.4907 3.96944 14.3381 4.14471C14.3325 4.15126 14.3227 4.15198 14.2875 4.16798ZM9.11925 4.81089C9.14925 4.95198 9 5.13962 8.8365 5.14835C8.74087 5.15307 8.646 5.06035 8.64525 4.94835C8.6415 4.76944 8.7465 4.64035 8.874 4.52689C8.88112 4.52035 8.89725 4.52435 8.93437 4.52035C8.89912 4.59053 8.86837 4.64544 8.84587 4.69998C8.82262 4.75307 8.79787 4.80726 8.79112 4.86289C8.78625 4.89453 8.80725 4.95162 8.832 4.9618C8.86425 4.97453 8.91862 4.96544 8.95125 4.94617C9.009 4.91235 9.057 4.86326 9.11925 4.81089Z" fill="white"/>
<path fill-rule="evenodd" clip-rule="evenodd" d="M14.502 4.60579C14.532 4.52979 14.5642 4.45379 14.5976 4.37307C14.6617 4.44761 14.6737 4.65452 14.6235 4.71598C14.5834 4.7647 14.5305 4.76943 14.4806 4.73161C14.4244 4.6887 14.3805 4.68798 14.3224 4.73234C14.2534 4.78689 14.2057 4.77307 14.1836 4.69198C14.1656 4.62652 14.1682 4.55779 14.1626 4.49198C14.1739 4.48798 14.1866 4.48507 14.1971 4.48179C14.226 4.52798 14.2534 4.57452 14.2927 4.63998C14.3254 4.55852 14.3479 4.4967 14.3816 4.41125C14.4169 4.49234 14.4431 4.54652 14.4682 4.60325C14.4791 4.60325 14.4904 4.60507 14.502 4.60579ZM8.47573 7.15889C8.49111 7.03088 8.50536 6.91707 8.51811 6.80325C8.34373 6.78034 8.30473 6.72434 8.36698 6.60107C8.38498 6.56616 8.43561 6.51416 8.46336 6.51961C8.51511 6.52798 8.58148 6.55925 8.60548 6.60216C8.68086 6.73343 8.62498 7.02689 8.51773 7.13743C8.51286 7.14398 8.50123 7.14579 8.47573 7.15889ZM6.44248 3.29452C6.45336 3.36361 6.45523 3.41016 6.46948 3.4527C6.47886 3.48434 6.50548 3.51016 6.52273 3.53961C6.55086 3.52216 6.58536 3.51016 6.60486 3.48761C6.63448 3.44616 6.65436 3.39888 6.69936 3.35343C6.70423 3.39088 6.70423 3.42943 6.71661 3.46179C6.73198 3.49598 6.76123 3.52398 6.78336 3.55452C6.80511 3.52834 6.82948 3.5047 6.84936 3.4767C6.86061 3.46107 6.86548 3.44179 6.87673 3.42034C6.93711 3.49925 6.93073 3.59598 6.86398 3.65161C6.78073 3.72034 6.72898 3.65598 6.67873 3.60289C6.54111 3.68798 6.48636 3.69125 6.42073 3.61925C6.34498 3.53379 6.34386 3.41016 6.44248 3.29452ZM17.1731 6.63998C17.1679 6.59379 17.1577 6.56616 17.163 6.54288C17.2061 6.40361 17.1484 6.30834 17.0347 6.22979C16.9519 6.17379 16.9519 6.10579 17.0362 6.04943C17.0629 6.03198 17.1184 6.02543 17.145 6.04034C17.3164 6.1367 17.3651 6.44979 17.2361 6.59234C17.2252 6.60507 17.2091 6.61416 17.1731 6.63998ZM10.9762 4.19488C10.9762 4.15379 10.9744 4.11307 10.9762 4.07234C10.9879 3.89198 10.9526 3.72361 10.8472 3.56979C10.8292 3.5447 10.8139 3.50034 10.8244 3.4767C10.8433 3.44056 10.8746 3.4119 10.9129 3.39561C10.9301 3.39052 10.9777 3.43125 10.9912 3.45925C11.0726 3.62689 11.0887 3.8047 11.0674 3.98507C11.0595 4.05816 11.0374 4.12943 11.0212 4.20179C11.0062 4.20034 10.9909 4.1967 10.9762 4.19488ZM5.09998 3.86979C5.10786 3.71598 5.18961 3.58979 5.12661 3.45234C5.10298 3.46143 5.08948 3.47016 5.07411 3.47416C5.03848 3.47925 5.00061 3.48216 4.96423 3.48579C4.97248 3.44834 4.96911 3.40143 4.99198 3.37452C5.03848 3.32107 5.08723 3.24398 5.17648 3.27925C5.25748 3.31234 5.26123 3.39416 5.25598 3.4687C5.24848 3.60979 5.18961 3.73052 5.09998 3.86979Z" fill="white"/>
</svg>
