<svg width="20" height="20" viewBox="0 0 20 20" fill="none" xmlns="http://www.w3.org/2000/svg">
<path d="M7.94445 1.25278C9.2682 1.25157 10.5626 1.643 11.6638 2.37756C12.765 3.11211 13.6237 4.15678 14.1311 5.37942C14.6385 6.60205 14.7719 7.94772 14.5144 9.24617C14.2569 10.5446 13.62 11.7375 12.6844 12.674C11.7488 13.6105 10.5565 14.2484 9.25829 14.5071C7.96007 14.7658 6.61428 14.6336 5.39118 14.1273C4.16809 13.621 3.12263 12.7633 2.38707 11.6628C1.65151 10.5622 1.25889 9.26819 1.25889 7.94445C1.26692 6.17323 1.97367 4.47676 3.22555 3.22374C4.47742 1.97072 6.17325 1.26242 7.94445 1.25278ZM7.94445 0C6.37319 0 4.83721 0.465934 3.53075 1.33888C2.22429 2.21183 1.20603 3.45258 0.604739 4.90424C0.00344231 6.3559 -0.153884 7.95326 0.152654 9.49433C0.459192 11.0354 1.21583 12.451 2.32688 13.562C3.43793 14.6731 4.85349 15.4297 6.39456 15.7362C7.93564 16.0428 9.533 15.8855 10.9847 15.2842C12.4363 14.6829 13.6771 13.6646 14.55 12.3581C15.423 11.0517 15.8889 9.51571 15.8889 7.94445C15.8889 5.83745 15.0519 3.81675 13.562 2.32687C12.0721 0.837002 10.0514 0 7.94445 0Z" fill="black"/>
<path d="M19.3538 18.5105L14.85 13.9761L13.9822 14.8377L18.4861 19.3722C18.5426 19.4292 18.6099 19.4744 18.684 19.5054C18.758 19.5364 18.8375 19.5525 18.9178 19.5528C18.9981 19.5531 19.0777 19.5376 19.152 19.5071C19.2262 19.4766 19.2938 19.4318 19.3508 19.3752C19.4078 19.3187 19.453 19.2514 19.484 19.1773C19.515 19.1033 19.5311 19.0238 19.5314 18.9435C19.5317 18.8632 19.5162 18.7836 19.4857 18.7094C19.4552 18.6351 19.4104 18.5675 19.3538 18.5105Z" fill="black"/>
</svg>
