<svg width="23" height="23" viewBox="0 0 23 23" fill="none" xmlns="http://www.w3.org/2000/svg">
<path d="M4.07548 18.9241C2.607 17.4557 1.60694 15.5848 1.20178 13.548C0.796611 11.5113 1.00454 9.40008 1.79926 7.48148C2.59398 5.56289 3.93981 3.92305 5.66653 2.76935C7.39325 1.61565 9.42332 0.999911 11.5 1M18.9245 4.07502C20.393 5.54341 21.3931 7.41429 21.7982 9.45106C22.2034 11.4878 21.9955 13.599 21.2007 15.5176C20.406 17.4362 19.0602 19.076 17.3335 20.2297C15.6067 21.3834 13.5767 21.9992 11.5 21.9991" stroke="black" stroke-linecap="round" stroke-linejoin="round"/>
<path d="M17.3173 5.11504C18.2576 5.11504 19.0198 4.35279 19.0198 3.4125C19.0198 2.47221 18.2576 1.70996 17.3173 1.70996C16.377 1.70996 15.6147 2.47221 15.6147 3.4125C15.6147 4.35279 16.377 5.11504 17.3173 5.11504Z" stroke="black" stroke-linecap="round" stroke-linejoin="round"/>
<path d="M5.68277 21.2889C6.62305 21.2889 7.38531 20.5266 7.38531 19.5863C7.38531 18.646 6.62305 17.8838 5.68277 17.8838C4.74248 17.8838 3.98022 18.646 3.98022 19.5863C3.98022 20.5266 4.74248 21.2889 5.68277 21.2889Z" stroke="black" stroke-linecap="round" stroke-linejoin="round"/>
<path d="M9.27728 9.50732L10.9804 12.9129L16.6555 12.3454L13.2504 5.53418L9.27728 9.50732Z" stroke="black" stroke-linecap="round" stroke-linejoin="round"/>
<path d="M9.27733 9.50684L7.00727 10.6419C6.32507 10.9827 6.38268 12.2303 6.72351 12.9125C7.06435 13.5947 8.02761 14.3883 8.71035 14.0475L10.9804 12.9125M10.4786 13.2021L11.8974 16.0397L10.7623 16.6072L9.34356 13.7697" stroke="black" stroke-linecap="round" stroke-linejoin="round"/>
</svg>
