<svg width="28" height="28" viewBox="0 0 28 28" fill="none" xmlns="http://www.w3.org/2000/svg">
<path d="M19.3766 5.37457e-05C14.6014 5.37457e-05 10.7533 3.84822 10.7533 8.62339C10.7533 8.8767 10.7931 9.21948 10.8212 9.53315L1.59097 18.7623C1.08679 19.2632 0.68666 19.8589 0.413614 20.5151C0.140569 21.1712 0 21.8749 0 22.5856C0 23.2964 0.140569 24.0001 0.413614 24.6562C0.68666 25.3124 1.08679 25.9081 1.59097 26.409C2.09189 26.9132 2.68758 27.3133 3.34375 27.5864C3.99993 27.8594 4.70363 28 5.41434 28C6.12506 28 6.82876 27.8594 7.48493 27.5864C8.14111 27.3133 8.7368 26.9132 9.23771 26.409L18.4668 17.1788C18.7794 17.2068 19.1244 17.2467 19.3766 17.2467C24.1518 17.2467 27.9999 13.3986 27.9999 8.62339C28.0056 7.23395 27.6577 5.86591 26.9888 4.64803L26.3151 3.40196L25.3051 4.41304L20.6561 9.02653L18.9724 7.34282L23.5859 2.69485L24.5991 1.68376L23.352 1.01006C22.1336 0.342538 20.7658 -0.00497194 19.3766 5.37457e-05ZM19.3766 2.15589C19.9005 2.15589 20.2907 2.38225 20.7563 2.49328L16.6818 6.5678L15.9057 7.3439L16.6818 8.08443L19.9156 11.3182L20.6572 12.0943L21.4311 11.3182L25.5078 7.24365C25.6188 7.70931 25.8441 8.09952 25.8441 8.62339C25.8441 12.256 23.0092 15.0909 19.3766 15.0909C18.9454 15.0909 18.6005 15.0909 18.331 15.023L17.7597 14.8548L17.3221 15.2935L7.72108 24.8945C6.39525 26.2204 4.43344 26.2204 3.1076 24.8945L3.07311 24.86C1.77961 23.5342 1.79039 21.594 3.10545 20.2789L12.7064 10.679L13.1452 10.2413L12.9749 9.67004C12.9102 9.40057 12.908 9.05563 12.908 8.62447C12.908 4.99189 15.7429 2.15697 19.3755 2.15697L19.3766 2.15589Z" fill="#009CD9"/>
</svg>
