<svg width="24" height="21" viewBox="0 0 24 21" fill="none" xmlns="http://www.w3.org/2000/svg">
<path d="M12.4896 0.170777C12.3476 0.0601037 12.1728 0 11.9928 0C11.8128 0 11.638 0.0601037 11.496 0.170777L0 9.13478L0.9944 10.3924L2.4 9.29638V19.1996C2.40085 19.6237 2.56969 20.0301 2.86956 20.33C3.16944 20.6299 3.57591 20.7987 4 20.7996H20C20.4241 20.7987 20.8306 20.6299 21.1304 20.33C21.4303 20.0301 21.5992 19.6237 21.6 19.1996V9.30358L23.0056 10.3996L24 9.14198L12.4896 0.170777ZM13.6 19.1996H10.4V12.7996H13.6V19.1996ZM15.2 19.1996V12.7996C15.1996 12.3754 15.0309 11.9686 14.7309 11.6687C14.4309 11.3687 14.0242 11.2 13.6 11.1996H10.4C9.97578 11.2 9.56906 11.3687 9.2691 11.6687C8.96913 11.9686 8.80042 12.3754 8.8 12.7996V19.1996H4V8.04918L12 1.81718L20 8.05718V19.1996H15.2Z" fill="#878787"/>
</svg>
