<svg width="18" height="23" viewBox="0 0 18 23" fill="none" xmlns="http://www.w3.org/2000/svg">
<path d="M14.94 7.56C15.098 7.7182 15.1868 7.93266 15.1868 8.15625C15.1868 8.37984 15.098 8.5943 14.94 8.7525L12.69 11.0025C12.5318 11.1605 12.3173 11.2493 12.0938 11.2493C11.8702 11.2493 11.6557 11.1605 11.4975 11.0025L10.3725 9.8775C10.2896 9.80025 10.2231 9.7071 10.177 9.60361C10.1309 9.50011 10.1061 9.38838 10.1041 9.27509C10.1021 9.1618 10.1229 9.04926 10.1654 8.9442C10.2078 8.83914 10.271 8.7437 10.3511 8.66358C10.4312 8.58346 10.5266 8.5203 10.6317 8.47786C10.7368 8.43543 10.8493 8.41459 10.9626 8.41658C11.0759 8.41858 11.1876 8.44338 11.2911 8.4895C11.3946 8.53561 11.4878 8.6021 11.565 8.685L12.0938 9.21375L13.7475 7.56C13.9057 7.40199 14.1202 7.31324 14.3438 7.31324C14.5673 7.31324 14.7818 7.40199 14.94 7.56ZM14.94 14.94C15.0229 14.8628 15.0894 14.7696 15.1355 14.6661C15.1816 14.5626 15.2064 14.4509 15.2084 14.3376C15.2104 14.2243 15.1896 14.1118 15.1471 14.0067C15.1047 13.9016 15.0415 13.8062 14.9614 13.7261C14.8813 13.646 14.7859 13.5828 14.6808 13.5404C14.5757 13.4979 14.4632 13.4771 14.3499 13.4791C14.2366 13.4811 14.1249 13.5059 14.0214 13.552C13.9179 13.5981 13.8247 13.6646 13.7475 13.7475L12.0938 15.4012L11.565 14.8725C11.4878 14.7896 11.3946 14.7231 11.2911 14.677C11.1876 14.6309 11.0759 14.6061 10.9626 14.6041C10.8493 14.6021 10.7368 14.6229 10.6317 14.6654C10.5266 14.7078 10.4312 14.771 10.3511 14.8511C10.271 14.9312 10.2078 15.0266 10.1654 15.1317C10.1229 15.2368 10.1021 15.3493 10.1041 15.4626C10.1061 15.5759 10.1309 15.6876 10.177 15.7911C10.2231 15.8946 10.2896 15.9878 10.3725 16.065L11.4975 17.19C11.6557 17.348 11.8702 17.4368 12.0938 17.4368C12.3173 17.4368 12.5318 17.348 12.69 17.19L14.94 14.94ZM3.375 9.28125C3.375 9.05747 3.46389 8.84286 3.62213 8.68463C3.78036 8.52639 3.99497 8.4375 4.21875 8.4375H8.15625C8.38003 8.4375 8.59464 8.52639 8.75287 8.68463C8.91111 8.84286 9 9.05747 9 9.28125C9 9.50503 8.91111 9.71964 8.75287 9.87787C8.59464 10.0361 8.38003 10.125 8.15625 10.125H4.21875C3.99497 10.125 3.78036 10.0361 3.62213 9.87787C3.46389 9.71964 3.375 9.50503 3.375 9.28125ZM4.21875 14.625C3.99497 14.625 3.78036 14.7139 3.62213 14.8721C3.46389 15.0304 3.375 15.245 3.375 15.4688C3.375 15.6925 3.46389 15.9071 3.62213 16.0654C3.78036 16.2236 3.99497 16.3125 4.21875 16.3125H8.15625C8.38003 16.3125 8.59464 16.2236 8.75287 16.0654C8.91111 15.9071 9 15.6925 9 15.4688C9 15.245 8.91111 15.0304 8.75287 14.8721C8.59464 14.7139 8.38003 14.625 8.15625 14.625H4.21875ZM13.4843 2.25C13.4151 1.63124 13.1203 1.05968 12.6562 0.644593C12.1921 0.229508 11.5914 1.88107e-05 10.9688 0H7.03125C6.40863 1.88107e-05 5.80786 0.229508 5.3438 0.644593C4.87973 1.05968 4.58493 1.63124 4.51575 2.25H2.53125C1.85992 2.25 1.21609 2.51668 0.741386 2.99139C0.266685 3.46609 0 4.10992 0 4.78125V19.9688C0 20.6401 0.266685 21.2839 0.741386 21.7586C1.21609 22.2333 1.85992 22.5 2.53125 22.5H15.4688C15.8012 22.5 16.1303 22.4345 16.4374 22.3073C16.7445 22.1801 17.0236 21.9937 17.2586 21.7586C17.4937 21.5236 17.6801 21.2445 17.8073 20.9374C17.9345 20.6303 18 20.3012 18 19.9688V4.78125C18 4.44884 17.9345 4.11969 17.8073 3.81258C17.6801 3.50548 17.4937 3.22643 17.2586 2.99139C17.0236 2.75634 16.7445 2.56989 16.4374 2.44268C16.1303 2.31547 15.8012 2.25 15.4688 2.25H13.4843ZM7.03125 5.0625H10.9688C11.8462 5.0625 12.6191 4.61587 13.0736 3.9375H15.4688C15.6925 3.9375 15.9071 4.02639 16.0654 4.18463C16.2236 4.34286 16.3125 4.55747 16.3125 4.78125V19.9688C16.3125 20.1925 16.2236 20.4071 16.0654 20.5654C15.9071 20.7236 15.6925 20.8125 15.4688 20.8125H2.53125C2.30747 20.8125 2.09286 20.7236 1.93463 20.5654C1.77639 20.4071 1.6875 20.1925 1.6875 19.9688V4.78125C1.6875 4.55747 1.77639 4.34286 1.93463 4.18463C2.09286 4.02639 2.30747 3.9375 2.53125 3.9375H4.92637C5.38087 4.61587 6.15375 5.0625 7.03125 5.0625ZM7.03125 1.6875H10.9688C11.1925 1.6875 11.4071 1.77639 11.5654 1.93463C11.7236 2.09286 11.8125 2.30747 11.8125 2.53125C11.8125 2.75503 11.7236 2.96964 11.5654 3.12787C11.4071 3.28611 11.1925 3.375 10.9688 3.375H7.03125C6.80747 3.375 6.59286 3.28611 6.43463 3.12787C6.2764 2.96964 6.1875 2.75503 6.1875 2.53125C6.1875 2.30747 6.2764 2.09286 6.43463 1.93463C6.59286 1.77639 6.80747 1.6875 7.03125 1.6875Z" fill="#878787"/>
</svg>
