<svg width="28" height="35" viewBox="0 0 28 35" fill="none" xmlns="http://www.w3.org/2000/svg">
<path d="M23.24 11.76C23.4858 12.0061 23.6238 12.3397 23.6238 12.6875C23.6238 13.0353 23.4858 13.3689 23.24 13.615L19.74 17.115C19.4939 17.3608 19.1603 17.4988 18.8125 17.4988C18.4647 17.4988 18.1311 17.3608 17.885 17.115L16.135 15.365C16.006 15.2448 15.9026 15.0999 15.8309 14.9389C15.7591 14.7779 15.7206 14.6041 15.7175 14.4279C15.7144 14.2517 15.7468 14.0766 15.8128 13.9132C15.8788 13.7498 15.9771 13.6013 16.1017 13.4767C16.2263 13.3521 16.3748 13.2538 16.5382 13.1878C16.7016 13.1218 16.8767 13.0894 17.0529 13.0925C17.2291 13.0956 17.4029 13.1341 17.5639 13.2059C17.7249 13.2776 17.8698 13.381 17.99 13.51L18.8125 14.3325L21.385 11.76C21.6311 11.5142 21.9647 11.3762 22.3125 11.3762C22.6603 11.3762 22.9939 11.5142 23.24 11.76ZM23.24 23.24C23.369 23.1198 23.4724 22.9749 23.5441 22.8139C23.6159 22.6529 23.6544 22.4791 23.6575 22.3029C23.6606 22.1267 23.6282 21.9516 23.5622 21.7882C23.4962 21.6248 23.3979 21.4763 23.2733 21.3517C23.1487 21.2271 23.0002 21.1288 22.8368 21.0628C22.6734 20.9968 22.4983 20.9644 22.3221 20.9675C22.1459 20.9706 21.9721 21.0091 21.8111 21.0809C21.6501 21.1526 21.5052 21.256 21.385 21.385L18.8125 23.9575L17.99 23.135C17.8698 23.006 17.7249 22.9026 17.5639 22.8309C17.4029 22.7591 17.2291 22.7206 17.0529 22.7175C16.8767 22.7144 16.7016 22.7468 16.5382 22.8128C16.3748 22.8788 16.2263 22.9771 16.1017 23.1017C15.9771 23.2263 15.8788 23.3748 15.8128 23.5382C15.7468 23.7016 15.7144 23.8767 15.7175 24.0529C15.7206 24.2291 15.7591 24.4029 15.8309 24.5639C15.9026 24.7249 16.006 24.8698 16.135 24.99L17.885 26.74C18.1311 26.9858 18.4647 27.1238 18.8125 27.1238C19.1603 27.1238 19.4939 26.9858 19.74 26.74L23.24 23.24ZM5.25 14.4375C5.25 14.0894 5.38828 13.7556 5.63442 13.5094C5.88056 13.2633 6.2144 13.125 6.5625 13.125H12.6875C13.0356 13.125 13.3694 13.2633 13.6156 13.5094C13.8617 13.7556 14 14.0894 14 14.4375C14 14.7856 13.8617 15.1194 13.6156 15.3656C13.3694 15.6117 13.0356 15.75 12.6875 15.75H6.5625C6.2144 15.75 5.88056 15.6117 5.63442 15.3656C5.38828 15.1194 5.25 14.7856 5.25 14.4375ZM6.5625 22.75C6.2144 22.75 5.88056 22.8883 5.63442 23.1344C5.38828 23.3806 5.25 23.7144 5.25 24.0625C5.25 24.4106 5.38828 24.7444 5.63442 24.9906C5.88056 25.2367 6.2144 25.375 6.5625 25.375H12.6875C13.0356 25.375 13.3694 25.2367 13.6156 24.9906C13.8617 24.7444 14 24.4106 14 24.0625C14 23.7144 13.8617 23.3806 13.6156 23.1344C13.3694 22.8883 13.0356 22.75 12.6875 22.75H6.5625ZM20.9755 3.5C20.8679 2.53748 20.4093 1.64839 19.6874 1.0027C18.9655 0.357012 18.031 2.92611e-05 17.0625 0H10.9375C9.96898 2.92611e-05 9.03445 0.357012 8.31258 1.0027C7.5907 1.64839 7.13211 2.53748 7.0245 3.5H3.9375C2.89321 3.5 1.89169 3.91484 1.15327 4.65327C0.414843 5.39169 0 6.39321 0 7.4375V31.0625C0 32.1068 0.414843 33.1083 1.15327 33.8467C1.89169 34.5852 2.89321 35 3.9375 35H24.0625C24.5796 35 25.0916 34.8982 25.5693 34.7003C26.047 34.5024 26.4811 34.2124 26.8467 33.8467C27.2124 33.4811 27.5024 33.047 27.7003 32.5693C27.8982 32.0916 28 31.5796 28 31.0625V7.4375C28 6.92042 27.8982 6.4084 27.7003 5.93068C27.5024 5.45296 27.2124 5.0189 26.8467 4.65327C26.4811 4.28764 26.047 3.9976 25.5693 3.79972C25.0916 3.60185 24.5796 3.5 24.0625 3.5H20.9755ZM10.9375 7.875H17.0625C18.4275 7.875 19.6298 7.18025 20.3368 6.125H24.0625C24.4106 6.125 24.7444 6.26328 24.9906 6.50942C25.2367 6.75556 25.375 7.0894 25.375 7.4375V31.0625C25.375 31.4106 25.2367 31.7444 24.9906 31.9906C24.7444 32.2367 24.4106 32.375 24.0625 32.375H3.9375C3.5894 32.375 3.25556 32.2367 3.00942 31.9906C2.76328 31.7444 2.625 31.4106 2.625 31.0625V7.4375C2.625 7.0894 2.76328 6.75556 3.00942 6.50942C3.25556 6.26328 3.5894 6.125 3.9375 6.125H7.66325C8.37025 7.18025 9.5725 7.875 10.9375 7.875ZM10.9375 2.625H17.0625C17.4106 2.625 17.7444 2.76328 17.9906 3.00942C18.2367 3.25556 18.375 3.5894 18.375 3.9375C18.375 4.2856 18.2367 4.61944 17.9906 4.86558C17.7444 5.11172 17.4106 5.25 17.0625 5.25H10.9375C10.5894 5.25 10.2556 5.11172 10.0094 4.86558C9.76328 4.61944 9.625 4.2856 9.625 3.9375C9.625 3.5894 9.76328 3.25556 10.0094 3.00942C10.2556 2.76328 10.5894 2.625 10.9375 2.625Z" fill="#009CD9"/>
</svg>
