<svg width="20" height="20" viewBox="0 0 20 20" fill="none" xmlns="http://www.w3.org/2000/svg">
<path d="M10.9412 0.29457C9.95939 -0.0981901 8.86414 -0.0981901 7.88235 0.29457L1.10941 3.00633C0.782246 3.13718 0.50174 3.36296 0.304018 3.65462C0.106296 3.94628 0.000411075 4.29045 2.46301e-08 4.64281V13.6381C-5.88987e-05 13.9909 0.105606 14.3355 0.303359 14.6277C0.501111 14.9198 0.781874 15.1459 1.10941 15.2769L7.88235 17.9863C8.39668 18.1923 8.94728 18.2923 9.50118 18.2805C9.21482 17.8937 8.97253 17.4762 8.77882 17.0357C8.62228 17.0013 8.46882 16.9541 8.32 16.8946L1.54588 14.1852C1.43665 14.1414 1.34306 14.0659 1.27721 13.9683C1.21135 13.8708 1.17626 13.7558 1.17647 13.6381V4.71575L8.82353 7.77457V11.7357C9.11838 11.0952 9.51575 10.5071 10 9.99457V7.77339L17.6471 4.71457V8.66869C18.0682 8.88398 18.4624 9.14398 18.8235 9.4428V4.64281C18.8236 4.29004 18.7179 3.94536 18.5202 3.65324C18.3224 3.36112 18.0417 3.13497 17.7141 3.00398L10.9412 0.29457ZM8.32 1.38869C9.02122 1.10819 9.80348 1.10819 10.5047 1.38869L16.6518 3.84751L13.9706 4.9181L6.73059 2.02398L8.31882 1.38869H8.32ZM5.14706 2.65575L12.3871 5.55104L9.41177 6.74281L2.17176 3.84633L5.14706 2.65692V2.65575ZM14.7059 19.7287C16.11 19.7287 17.4565 19.1709 18.4494 18.1781C19.4422 17.1852 20 15.8387 20 14.4346C20 13.0305 19.4422 11.6839 18.4494 10.6911C17.4565 9.69822 16.11 9.14045 14.7059 9.14045C13.3018 9.14045 11.9552 9.69822 10.9624 10.6911C9.96954 11.6839 9.41177 13.0305 9.41177 14.4346C9.41177 15.8387 9.96954 17.1852 10.9624 18.1781C11.9552 19.1709 13.3018 19.7287 14.7059 19.7287ZM13.5294 15.3675L16.6424 12.2546C16.7527 12.1441 16.9023 12.082 17.0584 12.0819C17.1357 12.0818 17.2122 12.097 17.2837 12.1265C17.3551 12.1561 17.42 12.1994 17.4747 12.254C17.5294 12.3086 17.5728 12.3734 17.6024 12.4448C17.6321 12.5162 17.6473 12.5927 17.6474 12.67C17.6474 12.7473 17.6323 12.8239 17.6027 12.8953C17.5732 12.9667 17.5299 13.0316 17.4753 13.0863L13.9459 16.6157C13.8912 16.6705 13.8263 16.714 13.7549 16.7436C13.6834 16.7733 13.6068 16.7886 13.5294 16.7886C13.452 16.7886 13.3754 16.7733 13.304 16.7436C13.2325 16.714 13.1676 16.6705 13.1129 16.6157L11.9365 15.4393C11.8262 15.3288 11.7643 15.1791 11.7644 15.023C11.7645 14.8669 11.8266 14.7172 11.9371 14.6069C12.0475 14.4966 12.1973 14.4347 12.3534 14.4348C12.5095 14.4349 12.6591 14.4971 12.7694 14.6075L13.5294 15.3675Z" fill="#878787"/>
</svg>
