<svg width="32" height="32" viewBox="0 0 32 32" fill="none" xmlns="http://www.w3.org/2000/svg">
<path d="M17.5059 0.471312C15.935 -0.157104 14.1826 -0.157104 12.6118 0.471312L1.77506 4.81013C1.25159 5.01948 0.802784 5.38074 0.486429 5.84739C0.170073 6.31404 0.00065772 6.86471 3.94082e-08 7.42849V21.821C-9.4238e-05 22.3854 0.16897 22.9369 0.485374 23.4043C0.801778 23.8717 1.251 24.2335 1.77506 24.4431L12.6118 28.7781C13.4347 29.1076 14.3156 29.2677 15.2019 29.2487C14.7437 28.63 14.3561 27.962 14.0461 27.2572C13.7956 27.2021 13.5501 27.1266 13.312 27.0313L2.47341 22.6963C2.29864 22.6262 2.1489 22.5054 2.04353 22.3493C1.93817 22.1933 1.88202 22.0092 1.88235 21.821V7.54519L14.1176 12.4393V18.7772C14.5894 17.7524 15.2252 16.8114 16 15.9913V12.4374L28.2353 7.54331V13.8699C28.9092 14.2144 29.5398 14.6304 30.1176 15.1085V7.42849C30.1177 6.86407 29.9487 6.31258 29.6323 5.84519C29.3159 5.3778 28.8666 5.01596 28.3426 4.80637L17.5059 0.471312ZM13.312 2.2219C14.434 1.7731 15.6856 1.7731 16.8075 2.2219L26.6428 6.15602L22.3529 7.86896L10.7689 3.23837L13.3101 2.2219H13.312ZM8.23529 4.24919L19.8193 8.88167L15.0588 10.7885L3.47482 6.15414L8.23529 4.25108V4.24919ZM23.5294 31.5659C25.776 31.5659 27.9305 30.6735 29.519 29.0849C31.1076 27.4964 32 25.3419 32 23.0953C32 20.8488 31.1076 18.6942 29.519 17.1057C27.9305 15.5172 25.776 14.6247 23.5294 14.6247C21.2829 14.6247 19.1283 15.5172 17.5398 17.1057C15.9513 18.6942 15.0588 20.8488 15.0588 23.0953C15.0588 25.3419 15.9513 27.4964 17.5398 29.0849C19.1283 30.6735 21.2829 31.5659 23.5294 31.5659ZM21.6471 24.588L26.6278 19.6073C26.8042 19.4306 27.0437 19.3312 27.2935 19.331C27.4171 19.3309 27.5396 19.3552 27.6539 19.4025C27.7682 19.4497 27.872 19.519 27.9595 19.6064C28.047 19.6938 28.1165 19.7975 28.1639 19.9117C28.2113 20.026 28.2357 20.1484 28.2358 20.2721C28.2359 20.3957 28.2116 20.5182 28.1644 20.6325C28.1171 20.7468 28.0479 20.8506 27.9605 20.9381L22.3134 26.5852C22.226 26.6728 22.1221 26.7424 22.0078 26.7898C21.8934 26.8373 21.7709 26.8617 21.6471 26.8617C21.5233 26.8617 21.4007 26.8373 21.2863 26.7898C21.172 26.7424 21.0681 26.6728 20.9807 26.5852L19.0984 24.7028C18.9219 24.5261 18.8228 24.2865 18.823 24.0368C18.8232 23.787 18.9226 23.5476 19.0993 23.3711C19.276 23.1946 19.5156 23.0956 19.7654 23.0957C20.0151 23.0959 20.2546 23.1953 20.4311 23.372L21.6471 24.588Z" fill="#009CD9"/>
</svg>
