<svg width="32" height="30" viewBox="0 0 32 30" fill="none" xmlns="http://www.w3.org/2000/svg">
<path fill-rule="evenodd" clip-rule="evenodd" d="M5.30089 15.5448C4.28542 17.068 3.74355 18.8578 3.74357 20.6884V21.9931C3.74357 22.4895 3.54636 22.9656 3.19533 23.3166C2.84431 23.6677 2.36821 23.8649 1.87178 23.8649C1.37536 23.8649 0.89926 23.6677 0.548232 23.3166C0.197205 22.9656 0 22.4895 0 21.9931V20.6884C0 18.1185 0.759944 15.6065 2.18624 13.4671L5.30089 15.5448Z" fill="#009CD9"/>
<path fill-rule="evenodd" clip-rule="evenodd" d="M8.99018 13.5706C7.50773 13.5706 6.12261 14.3118 5.3009 15.5453L2.18625 13.4676C2.93311 12.3477 3.94489 11.4294 5.1318 10.7943C6.31871 10.1593 7.64404 9.82699 8.99018 9.82703H9.35892C9.85535 9.82703 10.3314 10.0242 10.6825 10.3753C11.0335 10.7263 11.2307 11.2024 11.2307 11.6988C11.2307 12.1952 11.0335 12.6713 10.6825 13.0224C10.3314 13.3734 9.85535 13.5706 9.35892 13.5706H8.99018ZM13.1287 15.5453C14.1451 17.0671 14.686 18.8584 14.686 20.689V21.9936C14.686 22.49 14.8832 22.9661 15.2342 23.3172C15.5853 23.6682 16.0614 23.8654 16.5578 23.8654C17.0542 23.8654 17.5303 23.6682 17.8813 23.3172C18.2324 22.9661 18.4296 22.49 18.4296 21.9936V20.689C18.4297 18.1188 17.6689 15.6062 16.2433 13.4676L13.1287 15.5453Z" fill="#009CD9"/>
<path fill-rule="evenodd" clip-rule="evenodd" d="M9.43933 13.5706C10.9218 13.5706 12.3069 14.3118 13.1286 15.5453L16.2433 13.4676C15.4964 12.3477 14.4846 11.4294 13.2977 10.7943C12.1108 10.1593 10.7855 9.82699 9.43933 9.82703H9.07059C8.57416 9.82703 8.09807 10.0242 7.74704 10.3753C7.39601 10.7263 7.19881 11.2024 7.19881 11.6988C7.19881 12.1952 7.39601 12.6713 7.74704 13.0224C8.09807 13.3734 8.57416 13.5706 9.07059 13.5706H9.43933Z" fill="#009CD9"/>
<path fill-rule="evenodd" clip-rule="evenodd" d="M9.0706 8.42302C9.69113 8.42302 10.2863 8.17652 10.725 7.73773C11.1638 7.29895 11.4103 6.70383 11.4103 6.08329C11.4103 5.46276 11.1638 4.86764 10.725 4.42886C10.2863 3.99007 9.69113 3.74357 9.0706 3.74357C8.45006 3.74357 7.85495 3.99007 7.41616 4.42886C6.97738 4.86764 6.73087 5.46276 6.73087 6.08329C6.73087 6.70383 6.97738 7.29895 7.41616 7.73773C7.85495 8.17652 8.45006 8.42302 9.0706 8.42302ZM9.0706 12.1666C10.684 12.1666 12.2313 11.5257 13.3721 10.3848C14.513 9.24399 15.1539 7.69668 15.1539 6.08329C15.1539 4.4699 14.513 2.92259 13.3721 1.78176C12.2313 0.640916 10.684 0 9.0706 0C7.45721 0 5.9099 0.640916 4.76906 1.78176C3.62822 2.92259 2.9873 4.4699 2.9873 6.08329C2.9873 7.69668 3.62822 9.24399 4.76906 10.3848C5.9099 11.5257 7.45721 12.1666 9.0706 12.1666ZM18.8713 21.6285C17.8558 23.1517 17.3139 24.9414 17.3139 26.7721V28.0767C17.3139 28.5732 17.1167 29.0493 16.7657 29.4003C16.4147 29.7513 15.9386 29.9485 15.4421 29.9485C14.9457 29.9485 14.4696 29.7513 14.1186 29.4003C13.7676 29.0493 13.5704 28.5732 13.5704 28.0767V26.7721C13.5704 24.2022 14.3303 21.6902 15.7566 19.5508L18.8713 21.6285ZM22.5605 19.6537C21.0781 19.6537 19.693 20.3949 18.8713 21.6285L15.7566 19.5508C16.5035 18.4308 17.5153 17.5126 18.7022 16.8775C19.8891 16.2424 21.2144 15.9101 22.5605 15.9102H22.9293C23.4257 15.9102 23.9018 16.1074 24.2528 16.4584C24.6039 16.8094 24.8011 17.2855 24.8011 17.7819C24.8011 18.2784 24.6039 18.7545 24.2528 19.1055C23.9018 19.4565 23.4257 19.6537 22.9293 19.6537H22.5605ZM26.6991 21.6285C27.7154 23.1502 28.2564 24.9415 28.2564 26.7721V28.0767C28.2564 28.5732 28.4536 29.0493 28.8046 29.4003C29.1556 29.7513 29.6317 29.9485 30.1282 29.9485C30.6246 29.9485 31.1007 29.7513 31.4517 29.4003C31.8027 29.0493 31.9999 28.5732 31.9999 28.0767V26.7721C32 24.202 31.2393 21.6893 29.8137 19.5508L26.6991 21.6285Z" fill="#009CD9"/>
<path fill-rule="evenodd" clip-rule="evenodd" d="M23.0098 19.6537C24.4922 19.6537 25.8774 20.3949 26.6991 21.6285L29.8137 19.5508C29.0669 18.4308 28.0551 17.5126 26.8682 16.8775C25.6812 16.2424 24.3559 15.9101 23.0098 15.9102H22.641C22.1446 15.9102 21.6685 16.1074 21.3175 16.4584C20.9665 16.8094 20.7693 17.2855 20.7693 17.7819C20.7693 18.2784 20.9665 18.7545 21.3175 19.1055C21.6685 19.4565 22.1446 19.6537 22.641 19.6537H23.0098Z" fill="#009CD9"/>
<path fill-rule="evenodd" clip-rule="evenodd" d="M22.641 14.5062C23.2616 14.5062 23.8567 14.2596 24.2955 13.8209C24.7343 13.3821 24.9808 12.787 24.9808 12.1664C24.9808 11.5459 24.7343 10.9508 24.2955 10.512C23.8567 10.0732 23.2616 9.8267 22.641 9.8267C22.0205 9.8267 21.4254 10.0732 20.9866 10.512C20.5478 10.9508 20.3013 11.5459 20.3013 12.1664C20.3013 12.787 20.5478 13.3821 20.9866 13.8209C21.4254 14.2596 22.0205 14.5062 22.641 14.5062ZM22.641 18.2497C24.2544 18.2497 25.8017 17.6088 26.9426 16.468C28.0834 15.3271 28.7243 13.7798 28.7243 12.1664C28.7243 10.553 28.0834 9.00572 26.9426 7.86489C25.8017 6.72405 24.2544 6.08313 22.641 6.08313C21.0277 6.08313 19.4803 6.72405 18.3395 7.86489C17.1987 9.00572 16.5578 10.553 16.5578 12.1664C16.5578 13.7798 17.1987 15.3271 18.3395 16.468C19.4803 17.6088 21.0277 18.2497 22.641 18.2497Z" fill="#009CD9"/>
</svg>
