<svg width="20" height="19" viewBox="0 0 20 19" fill="none" xmlns="http://www.w3.org/2000/svg">
<path fill-rule="evenodd" clip-rule="evenodd" d="M3.31306 9.71573C2.67839 10.6677 2.33972 11.7863 2.33973 12.9305V13.7459C2.33973 14.0562 2.21648 14.3537 1.99708 14.5731C1.77769 14.7925 1.48013 14.9158 1.16986 14.9158C0.859597 14.9158 0.562037 14.7925 0.342645 14.5731C0.123253 14.3537 0 14.0562 0 13.7459V12.9305C0 11.3243 0.474965 9.75433 1.3664 8.41718L3.31306 9.71573Z" fill="#878787"/>
<path fill-rule="evenodd" clip-rule="evenodd" d="M5.61883 8.48151C4.6923 8.48151 3.8266 8.94478 3.31303 9.71572L1.36637 8.41717C1.83316 7.7172 2.46553 7.14329 3.20734 6.74636C3.94916 6.34943 4.77749 6.14176 5.61883 6.14178H5.84929C6.15956 6.14178 6.45712 6.26504 6.67651 6.48443C6.89591 6.70382 7.01916 7.00138 7.01916 7.31165C7.01916 7.62192 6.89591 7.91948 6.67651 8.13887C6.45712 8.35826 6.15956 8.48151 5.84929 8.48151H5.61883ZM8.2054 9.71572C8.84064 10.6668 9.17873 11.7864 9.17873 12.9305V13.7459C9.17873 14.0562 9.30198 14.3537 9.52137 14.5731C9.74077 14.7925 10.0383 14.9158 10.3486 14.9158C10.6589 14.9158 10.9564 14.7925 11.1758 14.5731C11.3952 14.3537 11.5185 14.0562 11.5185 13.7459V12.9305C11.5185 11.3242 11.0431 9.75375 10.1521 8.41717L8.2054 9.71572Z" fill="#878787"/>
<path fill-rule="evenodd" clip-rule="evenodd" d="M5.89943 8.48151C6.82596 8.48151 7.69166 8.94478 8.20523 9.71572L10.1519 8.41717C9.6851 7.7172 9.05274 7.14329 8.31092 6.74636C7.5691 6.34943 6.74077 6.14176 5.89943 6.14178H5.66897C5.3587 6.14178 5.06114 6.26504 4.84175 6.48443C4.62236 6.70382 4.4991 7.00138 4.4991 7.31165C4.4991 7.62192 4.62236 7.91948 4.84175 8.13887C5.06114 8.35826 5.3587 8.48151 5.66897 8.48151H5.89943Z" fill="#878787"/>
<path fill-rule="evenodd" clip-rule="evenodd" d="M5.66892 5.26439C6.05676 5.26439 6.42871 5.11032 6.70295 4.83608C6.97719 4.56184 7.13125 4.18989 7.13125 3.80206C7.13125 3.41422 6.97719 3.04228 6.70295 2.76804C6.42871 2.4938 6.05676 2.33973 5.66892 2.33973C5.28109 2.33973 4.90914 2.4938 4.6349 2.76804C4.36066 3.04228 4.20659 3.41422 4.20659 3.80206C4.20659 4.18989 4.36066 4.56184 4.6349 4.83608C4.90914 5.11032 5.28109 5.26439 5.66892 5.26439ZM5.66892 7.60412C6.67729 7.60412 7.64436 7.20355 8.35738 6.49052C9.07041 5.7775 9.47098 4.81043 9.47098 3.80206C9.47098 2.79369 9.07041 1.82662 8.35738 1.1136C7.64436 0.400573 6.67729 0 5.66892 0C4.66055 0 3.69348 0.400573 2.98046 1.1136C2.26744 1.82662 1.86686 2.79369 1.86686 3.80206C1.86686 4.81043 2.26744 5.7775 2.98046 6.49052C3.69348 7.20355 4.66055 7.60412 5.66892 7.60412ZM11.7943 13.5178C11.1597 14.4698 10.821 15.5884 10.821 16.7326V17.548C10.821 17.8582 10.6978 18.1558 10.4784 18.3752C10.259 18.5946 9.96141 18.7178 9.65114 18.7178C9.34087 18.7178 9.04331 18.5946 8.82392 18.3752C8.60453 18.1558 8.48128 17.8582 8.48128 17.548V16.7326C8.48128 15.1263 8.95624 13.5564 9.84768 12.2192L11.7943 13.5178ZM14.1001 12.2836C13.1736 12.2836 12.3079 12.7468 11.7943 13.5178L9.84768 12.2192C10.3145 11.5193 10.9468 10.9453 11.6886 10.5484C12.4305 10.1515 13.2588 9.94382 14.1001 9.94385H14.3306C14.6409 9.94385 14.9384 10.0671 15.1578 10.2865C15.3772 10.5059 15.5005 10.8034 15.5005 11.1137C15.5005 11.424 15.3772 11.7215 15.1578 11.9409C14.9384 12.1603 14.6409 12.2836 14.3306 12.2836H14.1001ZM16.6867 13.5178C17.3219 14.4689 17.66 15.5884 17.66 16.7326V17.548C17.66 17.8582 17.7833 18.1558 18.0027 18.3752C18.2221 18.5946 18.5196 18.7178 18.8299 18.7178C19.1402 18.7178 19.4377 18.5946 19.6571 18.3752C19.8765 18.1558 19.9998 17.8582 19.9998 17.548V16.7326C19.9998 15.1262 19.5244 13.5558 18.6334 12.2192L16.6867 13.5178Z" fill="#878787"/>
<path fill-rule="evenodd" clip-rule="evenodd" d="M14.3809 12.2836C15.3074 12.2836 16.1731 12.7468 16.6867 13.5178L18.6333 12.2192C18.1665 11.5193 17.5342 10.9454 16.7924 10.5484C16.0505 10.1515 15.2222 9.94383 14.3809 9.94385H14.1504C13.8401 9.94385 13.5426 10.0671 13.3232 10.2865C13.1038 10.5059 12.9805 10.8034 12.9805 11.1137C12.9805 11.424 13.1038 11.7215 13.3232 11.9409C13.5426 12.1603 13.8401 12.2836 14.1504 12.2836H14.3809Z" fill="#878787"/>
<path fill-rule="evenodd" clip-rule="evenodd" d="M14.1504 9.06645C14.5382 9.06645 14.9102 8.91239 15.1844 8.63814C15.4586 8.3639 15.6127 7.99196 15.6127 7.60412C15.6127 7.21629 15.4586 6.84434 15.1844 6.5701C14.9102 6.29586 14.5382 6.14179 14.1504 6.14179C13.7625 6.14179 13.3906 6.29586 13.1163 6.5701C12.8421 6.84434 12.688 7.21629 12.688 7.60412C12.688 7.99196 12.8421 8.3639 13.1163 8.63814C13.3906 8.91239 13.7625 9.06645 14.1504 9.06645ZM14.1504 11.4062C15.1587 11.4062 16.1258 11.0056 16.8388 10.2926C17.5519 9.57956 17.9524 8.61249 17.9524 7.60412C17.9524 6.59575 17.5519 5.62868 16.8388 4.91566C16.1258 4.20264 15.1587 3.80206 14.1504 3.80206C13.142 3.80206 12.1749 4.20264 11.4619 4.91566C10.7489 5.62868 10.3483 6.59575 10.3483 7.60412C10.3483 8.61249 10.7489 9.57956 11.4619 10.2926C12.1749 11.0056 13.142 11.4062 14.1504 11.4062Z" fill="#878787"/>
</svg>
