<svg width="21" height="22" viewBox="0 0 21 22" fill="none" xmlns="http://www.w3.org/2000/svg">
<path d="M20.9992 14.3817C21.0065 14.2149 20.9624 14.0499 20.8731 13.909C20.7837 13.768 20.6533 13.6578 20.4994 13.5932L19.3167 13.2412C19.2534 13.0723 19.19 12.9033 19.1126 12.7414L19.6617 11.7277C19.7441 11.5725 19.7743 11.3948 19.7476 11.221C19.721 11.0472 19.639 10.8867 19.5138 10.7633L18.5142 9.7707C18.39 9.64668 18.229 9.56601 18.0553 9.54064C17.8816 9.51528 17.7043 9.54659 17.5498 9.62991L16.529 10.1649C16.3548 10.0805 16.1762 10.0053 15.994 9.93965L15.6561 8.82739C15.5997 8.66616 15.4938 8.5269 15.3534 8.42953C15.2131 8.33217 15.0455 8.2817 14.8747 8.28534H13.4668C13.2919 8.2852 13.1216 8.34121 12.9809 8.44513C12.8403 8.54904 12.7367 8.69538 12.6854 8.86259L12.3545 9.94669C12.1699 10.012 11.989 10.0872 11.8125 10.172L10.8129 9.63695C10.6591 9.5553 10.4833 9.52493 10.3111 9.55026C10.1388 9.57559 9.9792 9.65529 9.85547 9.77774L8.83472 10.7633C8.70797 10.8872 8.625 11.049 8.59833 11.2243C8.57166 11.3996 8.60274 11.5787 8.68689 11.7348L9.20782 12.671C9.126 12.8407 9.05316 13.0146 8.98959 13.192L7.87733 13.5228C7.70821 13.5718 7.55968 13.6746 7.45424 13.8156C7.3488 13.9566 7.29221 14.1282 7.29304 14.3042V15.7122C7.29374 15.887 7.35103 16.057 7.45636 16.1965C7.56168 16.3361 7.70937 16.4379 7.87733 16.4865L8.99663 16.8174C9.06052 16.99 9.13337 17.1592 9.21486 17.3242L8.66577 18.352C8.58332 18.5073 8.55318 18.685 8.57981 18.8587C8.60644 19.0325 8.68844 19.193 8.8136 19.3164L9.81323 20.302C9.93666 20.4272 10.0972 20.5091 10.2709 20.5358C10.4447 20.5624 10.6224 20.5323 10.7777 20.4498L11.8195 19.9007C11.9814 19.9782 12.1504 20.0415 12.3264 20.1049L12.6713 21.2453C12.7238 21.4112 12.8279 21.556 12.9685 21.6586C13.1091 21.7611 13.2787 21.8161 13.4527 21.8155H14.8606C15.0355 21.8157 15.2059 21.7596 15.3465 21.6557C15.4872 21.5518 15.5908 21.4055 15.642 21.2383L15.9729 20.126C16.1419 20.0697 16.3038 19.9993 16.4657 19.9219L17.5216 20.478C17.6754 20.5596 17.8512 20.59 18.0234 20.5647C18.1957 20.5394 18.3553 20.4596 18.479 20.3372L19.4786 19.3516C19.6054 19.2277 19.6884 19.0659 19.715 18.8906C19.7417 18.7154 19.7106 18.5362 19.6265 18.3802L19.0703 17.3594C19.1454 17.1999 19.2135 17.038 19.2745 16.8737L20.4149 16.5428C20.584 16.4938 20.7326 16.3911 20.838 16.25C20.9434 16.109 21 15.9375 20.9992 15.7614V14.3817ZM19.8729 15.5291L18.3875 15.9656L18.303 16.2612C18.2162 16.5523 18.0982 16.8332 17.951 17.099L17.8032 17.3665L18.5072 18.711L17.8032 19.415L16.3953 18.711L16.1348 18.8518C15.866 18.996 15.5829 19.1116 15.2901 19.1968L14.9944 19.2812L14.5509 20.7525H13.6709L13.2275 19.2883L12.9318 19.2038C12.6366 19.119 12.3511 19.0034 12.08 18.8589L11.8195 18.7181L10.4538 19.422L9.74987 18.7181L10.4538 17.3524L10.299 17.0849C10.1577 16.8 10.0491 16.5001 9.97514 16.1908L9.85547 15.9304L8.44754 15.4869V14.5647L9.85547 14.1353L9.94698 13.8467C10.0383 13.5449 10.1635 13.2544 10.3201 12.9808L10.489 12.671L9.78507 11.3687L10.489 10.707L11.8195 11.4109L12.087 11.2631C12.3684 11.109 12.6659 10.9863 12.974 10.897L13.2626 10.8126L13.7061 9.40464H14.6776L15.1141 10.8126L15.4027 10.897C15.7012 10.9881 15.9891 11.1108 16.2615 11.2631L16.529 11.4109L17.8806 10.707L18.5846 11.4109L17.8806 12.7414L18.0285 13.0089C18.1761 13.2794 18.2941 13.565 18.3805 13.8607L18.4649 14.1564L19.9151 14.5858L19.8729 15.5291Z" fill="black"/>
<path d="M14.1638 12.2129C13.6094 12.224 13.0706 12.3985 12.615 12.7146C12.1594 13.0307 11.8073 13.4742 11.6028 13.9897C11.3982 14.5051 11.3505 15.0694 11.4654 15.6118C11.5803 16.1543 11.8528 16.6508 12.2488 17.0389C12.6447 17.4271 13.1465 17.6898 13.6911 17.7939C14.2358 17.8981 14.799 17.8392 15.3103 17.6245C15.8215 17.4098 16.258 17.0489 16.565 16.5872C16.872 16.1254 17.0358 15.5833 17.0359 15.0288C17.0248 14.2757 16.7169 13.5574 16.179 13.0301C15.6412 12.5028 14.917 12.2091 14.1638 12.2129ZM14.1638 16.7605C13.827 16.7536 13.4998 16.6474 13.2232 16.4553C12.9465 16.2632 12.7328 15.9936 12.6087 15.6805C12.4846 15.3674 12.4557 15.0246 12.5256 14.6951C12.5955 14.3656 12.7612 14.0641 13.0018 13.8284C13.2423 13.5927 13.5471 13.4332 13.878 13.37C14.2088 13.3068 14.5509 13.3427 14.8615 13.4731C15.172 13.6036 15.4371 13.8228 15.6236 14.1033C15.81 14.3838 15.9095 14.7131 15.9096 15.0499C15.9078 15.2773 15.8611 15.5021 15.7724 15.7115C15.6837 15.9209 15.5546 16.1108 15.3924 16.2703C15.2303 16.4298 15.0384 16.5558 14.8276 16.6412C14.6168 16.7265 14.3912 16.7694 14.1638 16.7676V16.7605Z" fill="black"/>
<path d="M7.38458 19.711H1.40793V1.40793H15.4872V6.9622C15.7944 7.05236 16.079 7.20699 16.3217 7.41578C16.5645 7.62457 16.76 7.88272 16.8951 8.17301V1.40793C16.8951 1.03452 16.7468 0.67641 16.4827 0.412372C16.2187 0.148335 15.8606 0 15.4872 0H1.40793C1.03452 0 0.67641 0.148335 0.412372 0.412372C0.148335 0.67641 0 1.03452 0 1.40793V19.711C0 20.0844 0.148335 20.4425 0.412372 20.7065C0.67641 20.9706 1.03452 21.1189 1.40793 21.1189H8.60947L7.83511 20.3586C7.64696 20.1718 7.4943 19.9524 7.38458 19.711Z" fill="black"/>
</svg>
