<svg width="24" height="16" viewBox="0 0 24 16" fill="none" xmlns="http://www.w3.org/2000/svg">
<path d="M10 0.615385L5.33333 0H2.66667C1.95942 0 1.28115 0.25934 0.781049 0.720968C0.280952 1.1826 0 1.8087 0 2.46154L0 13.5385C0 14.1913 0.280952 14.8174 0.781049 15.279C1.28115 15.7407 1.95942 16 2.66667 16H5.33333L10 15.3846V0.615385Z" fill="#EEEEEE"/>
<path d="M21.3333 0H5.33331L9.38731 1.6L5.33331 3.2L9.38731 4.8L5.33331 6.4L9.38731 8L5.33331 9.6L9.38731 11.2L5.33331 12.8L9.38731 14.4L5.33331 16H21.3333C22.0406 16 22.7188 15.7407 23.2189 15.279C23.719 14.8174 24 14.1913 24 13.5385V2.46154C24 1.8087 23.719 1.1826 23.2189 0.720968C22.7188 0.25934 22.0406 0 21.3333 0Z" fill="#CE1126"/>
</svg>
